<svg xmlns="http://www.w3.org/2000/svg" xmlns:v="https://svgstorm.com"
viewBox = "0 0 255 259"
width="255"
height="259">
<g fill="None" fill-opacity="0.0" stroke="#000000" stroke-opacity="0.00" stroke-width="0.3"><path d="
M 0.00 259.00 
L 255.00 259.00
L 255.00 0.00
L 0.00 0.00
L 0.00 259.00
M 25.00 26.00 
C 96.72 22.63 170.52 26.44 243.00 25.00
C 242.89 26.00 243.47 27.73 242.00 28.00
C 241.81 28.01 241.32 28.80 241.00 29.00
C 237.10 34.01 231.38 40.67 226.00 44.00
C 225.68 44.20 225.20 44.68 225.00 45.00
C 221.18 51.17 214.04 56.01 209.00 61.00
C 195.59 76.54 179.35 89.27 166.00 104.00
C 164.35 105.82 163.09 107.67 161.00 109.00
C 154.22 113.33 144.83 109.91 137.00 111.00
C 137.00 110.00 137.00 109.00 137.00 108.00
C 136.88 106.17 141.00 103.45 142.00 103.00
C 142.20 102.60 142.00 102.00 142.00 102.00
C 142.07 101.61 142.79 100.30 143.00 100.00
C 144.79 97.38 147.18 95.33 149.00 93.00
C 150.36 90.90 150.82 89.42 153.00 88.00
C 153.16 87.56 153.00 87.00 153.00 87.00
C 153.35 86.04 154.41 84.78 155.00 84.00
C 158.23 79.73 161.13 75.13 165.00 72.00
C 165.28 71.77 165.77 71.28 166.00 71.00
C 165.76 67.94 171.36 63.30 173.00 61.00
C 173.44 60.38 173.62 59.62 174.00 59.00
C 175.02 57.32 177.01 56.37 178.00 55.00
C 178.76 53.65 180.24 52.73 180.00 51.00
C 125.00 51.00 70.00 51.00 15.00 51.00
C 8.43 47.75 16.47 31.23 12.00 26.00
C 14.49 26.29 16.39 24.36 19.00 25.00
C 21.26 25.10 22.66 26.11 25.00 26.00
M 128.00 69.00 
C 128.49 69.06 129.00 69.00 129.00 69.00
C 130.34 67.71 132.04 68.02 134.00 68.00
C 140.45 66.73 141.75 69.86 138.00 74.00
C 135.19 77.10 132.37 81.87 129.75 84.75 C 127.13 87.63 124.82 93.95 121.00 95.00
C 120.87 95.03 121.00 96.00 121.00 96.00
C 119.56 102.57 114.24 105.23 117.00 113.00
C 118.49 115.85 119.66 117.75 123.00 119.00
C 132.04 121.38 144.30 118.16 155.00 119.00 C 165.70 119.84 179.06 119.00 190.00 119.00
C 190.50 119.00 191.00 119.00 191.00 119.00
C 192.85 117.63 197.23 117.23 199.00 119.00
C 201.08 121.08 197.46 122.63 196.00 124.00
C 189.47 130.15 183.49 136.88 177.00 143.00
C 174.15 145.68 171.93 148.28 169.00 150.00
C 160.50 158.50 152.36 168.43 143.00 177.00
C 139.94 179.80 136.72 184.07 133.00 186.00
C 132.33 186.35 131.63 186.65 131.00 187.00
C 128.20 188.55 111.25 187.82 118.00 184.00
C 118.22 183.64 118.00 183.00 118.00 183.00
C 119.25 180.45 122.12 177.80 124.00 176.00
C 124.16 175.56 124.00 175.00 124.00 175.00
C 126.68 171.49 128.33 167.56 132.00 165.00
C 132.16 164.56 132.00 164.00 132.00 164.00
C 133.66 161.82 135.14 159.78 137.00 158.00
C 137.09 157.52 137.00 157.00 137.00 157.00
C 139.73 152.62 141.52 149.55 141.00 144.00
C 140.95 143.50 141.00 143.00 141.00 143.00
C 134.59 132.97 120.99 137.60 110.00 137.00 C 99.01 136.40 84.33 137.00 73.00 137.00
C 69.36 137.00 60.42 138.50 58.00 136.00
C 57.75 135.75 58.00 135.00 58.00 135.00
C 62.38 126.05 75.26 117.52 82.00 111.00
C 83.00 109.76 83.82 108.98 85.00 108.00
C 92.65 100.50 100.43 92.50 108.00 85.00
C 109.79 82.93 112.14 80.88 114.00 79.00
C 116.99 75.98 120.03 70.77 124.00 69.00
C 125.81 68.19 126.50 67.54 128.00 69.00
M 115.00 152.00 
C 114.91 152.48 115.00 153.00 115.00 153.00
C 114.93 153.39 114.21 154.70 114.00 155.00
C 112.18 157.65 109.95 159.69 108.00 162.00
C 107.01 163.51 107.27 162.85 106.00 164.00
C 103.69 167.72 102.21 169.86 100.00 173.00
C 99.76 173.33 100.00 174.00 100.00 174.00
C 98.70 176.66 95.79 178.98 94.00 181.00
C 88.62 187.05 79.95 196.52 77.00 205.00
C 77.15 205.23 78.00 205.00 78.00 205.00
C 80.55 203.12 85.65 204.00 89.00 204.00
C 94.06 204.00 99.68 204.58 104.00 205.00
C 111.67 205.00 119.33 205.00 127.00 205.00
C 132.04 204.51 138.26 203.84 144.00 204.00
C 146.12 204.06 148.57 204.84 150.00 205.00
C 162.06 205.00 173.39 205.00 185.00 205.00
C 187.10 204.80 190.23 204.00 193.00 204.00
C 200.46 204.00 210.83 203.05 218.00 204.00 C 225.17 204.95 236.56 200.99 242.00 205.00
C 242.35 205.03 242.78 205.70 243.00 206.00
C 244.76 208.39 244.00 212.85 244.00 216.00
C 244.00 218.04 245.12 227.38 243.00 228.00
C 241.87 231.45 237.58 230.69 235.00 230.00
C 231.13 234.02 220.02 230.11 214.00 231.00 C 207.98 231.89 197.43 231.00 191.00 231.00
C 177.00 231.00 163.00 231.00 149.00 231.00
C 124.33 231.00 99.67 231.00 75.00 231.00
C 68.30 231.00 60.94 231.30 55.00 230.00
C 54.00 230.00 53.00 230.00 52.00 230.00
C 49.97 230.45 47.63 230.95 45.00 231.00
C 41.34 231.07 37.66 231.00 34.00 231.00
C 30.33 231.00 26.67 231.00 23.00 231.00
C 19.66 231.00 15.93 231.61 13.00 230.00
C 13.99 228.67 14.05 226.43 16.00 226.00
C 16.84 224.85 17.99 224.03 19.00 223.00
C 25.49 216.35 32.41 209.52 39.25 203.25 C 46.09 196.98 52.38 189.03 59.25 183.25 C 66.12 177.46 72.21 167.96 79.25 163.25 C 86.28 158.54 91.87 144.87 100.00 144.00
C 106.82 143.38 114.59 143.67 121.00 145.00
C 119.86 147.82 117.65 150.46 115.00 152.00 Z"/>
</g>
<g fill="None" fill-opacity="0.0" stroke="#767676" stroke-opacity="0.11" stroke-width="0.3"><path d="
M 15.00 51.00 
C 13.83 50.14 14.13 48.22 14.00 47.00
C 13.56 42.80 13.92 38.22 14.00 34.00
C 14.09 29.59 13.11 25.37 19.00 26.00
C 18.95 25.99 19.00 25.00 19.00 25.00
C 16.39 24.36 14.49 26.29 12.00 26.00
C 16.47 31.23 8.43 47.75 15.00 51.00 Z"/>
</g>
<g fill="None" fill-opacity="0.0" stroke="#171717" stroke-opacity="0.58" stroke-width="0.3"><path d="
M 19.00 26.00 
C 21.08 28.14 23.19 26.14 25.00 26.00
C 22.66 26.11 21.26 25.10 19.00 25.00
C 19.00 25.00 18.95 25.99 19.00 26.00 Z"/>
</g>
<g fill="None" fill-opacity="0.0" stroke="#838383" stroke-opacity="0.08" stroke-width="0.3"><path d="
M 25.00 26.00 
C 35.08 25.22 44.83 26.31 55.00 26.00 C 65.17 25.69 75.76 26.09 86.00 26.00 C 96.24 25.91 106.76 25.92 117.00 26.00 C 127.24 26.08 137.81 25.70 148.00 26.00 C 158.19 26.30 168.96 25.29 179.00 26.00 C 189.04 26.71 200.31 24.40 210.00 26.00 C 219.69 27.60 232.09 22.45 241.00 26.00
C 241.34 26.13 242.51 27.96 242.00 28.00
C 243.47 27.73 242.89 26.00 243.00 25.00
C 170.52 26.44 96.72 22.63 25.00 26.00 Z"/>
</g>
<g fill="None" fill-opacity="0.0" stroke="#000000" stroke-opacity="0.96" stroke-width="0.3"><path d="
M 14.00 34.00 
C 14.29 37.71 14.00 43.47 14.00 47.00
C 14.13 48.22 13.83 50.14 15.00 51.00
C 70.00 51.00 125.00 51.00 180.00 51.00
C 180.24 52.73 178.76 53.65 178.00 55.00
C 176.66 57.39 176.15 57.24 174.00 59.00
C 173.62 59.62 173.44 60.38 173.00 61.00
C 171.72 64.55 168.93 67.40 166.00 71.00
C 165.77 71.28 165.28 71.77 165.00 72.00
C 163.50 75.20 160.92 77.90 159.00 81.00
C 157.10 84.06 156.22 85.28 153.00 87.00
C 153.00 87.00 153.16 87.56 153.00 88.00
C 151.78 91.38 149.28 93.54 147.00 96.00
C 146.58 96.69 146.32 97.28 146.00 98.00
C 144.95 100.32 144.52 101.40 142.00 102.00
C 142.00 102.00 142.20 102.60 142.00 103.00
C 141.43 104.16 137.03 107.42 137.00 108.00
C 137.00 109.00 137.00 110.00 137.00 111.00
C 144.83 109.91 154.22 113.33 161.00 109.00
C 162.55 107.83 164.57 105.35 166.00 104.00
C 179.35 89.27 195.59 76.54 209.00 61.00
C 213.81 55.43 219.23 49.49 225.00 45.00
C 225.20 44.68 225.68 44.20 226.00 44.00
C 227.86 41.61 230.08 39.25 232.00 37.00
C 233.47 35.28 239.79 26.36 241.00 26.00
C 232.09 22.45 219.69 27.60 210.00 26.00 C 200.31 24.40 189.04 26.71 179.00 26.00 C 168.96 25.29 158.19 26.30 148.00 26.00 C 137.81 25.70 127.24 26.08 117.00 26.00 C 106.76 25.92 96.24 25.91 86.00 26.00 C 75.76 26.09 65.17 25.69 55.00 26.00 C 44.83 26.31 35.08 25.22 25.00 26.00
C 23.19 26.14 21.08 28.14 19.00 26.00
C 13.11 25.37 14.09 29.59 14.00 34.00 Z"/>
</g>
<g fill="None" fill-opacity="0.0" stroke="#151515" stroke-opacity="0.41" stroke-width="0.3"><path d="
M 232.00 37.00 
C 234.59 34.41 237.92 30.90 241.00 29.00
C 241.32 28.80 241.81 28.01 242.00 28.00
C 242.51 27.96 241.34 26.13 241.00 26.00
C 239.79 26.36 233.47 35.28 232.00 37.00 Z"/>
</g>
<g fill="None" fill-opacity="0.0" stroke="#5F5F5F" stroke-opacity="0.04" stroke-width="0.3"><path d="
M 232.00 37.00 
C 230.08 39.25 227.86 41.61 226.00 44.00
C 231.38 40.67 237.10 34.01 241.00 29.00
C 237.92 30.90 234.59 34.41 232.00 37.00 Z"/>
</g>
<g fill="None" fill-opacity="0.0" stroke="#0B0B0B" stroke-opacity="0.62" stroke-width="0.3"><path d="
M 14.00 47.00 
C 14.00 43.47 14.29 37.71 14.00 34.00
C 13.92 38.22 13.56 42.80 14.00 47.00 Z"/>
</g>
<g fill="None" fill-opacity="0.0" stroke="#535353" stroke-opacity="0.02" stroke-width="0.3"><path d="
M 209.00 61.00 
C 214.04 56.01 221.18 51.17 225.00 45.00
C 219.23 49.49 213.81 55.43 209.00 61.00 Z"/>
</g>
<g fill="None" fill-opacity="0.0" stroke="#3B3B3B" stroke-opacity="0.24" stroke-width="0.3"><path d="
M 174.00 59.00 
C 176.15 57.24 176.66 57.39 178.00 55.00
C 177.01 56.37 175.02 57.32 174.00 59.00 Z"/>
</g>
<g fill="None" fill-opacity="0.0" stroke="#686868" stroke-opacity="0.18" stroke-width="0.3"><path d="
M 166.00 71.00 
C 168.93 67.40 171.72 64.55 173.00 61.00
C 171.36 63.30 165.76 67.94 166.00 71.00 Z"/>
</g>
<g fill="None" fill-opacity="0.0" stroke="#505050" stroke-opacity="0.20" stroke-width="0.3"><path d="
M 124.00 69.00 
C 120.74 70.78 116.94 76.47 114.00 79.00
C 112.14 80.88 109.79 82.93 108.00 85.00
C 101.08 93.02 93.10 101.27 85.00 108.00
C 83.82 108.98 83.00 109.76 82.00 111.00
C 81.02 112.22 80.05 113.94 79.00 115.00
C 85.85 109.31 91.99 101.99 99.00 96.00
C 107.00 88.00 115.21 75.73 125.00 70.00
C 126.01 69.41 126.42 68.81 128.00 69.00
C 126.50 67.54 125.81 68.19 124.00 69.00 Z"/>
</g>
<g fill="None" fill-opacity="0.0" stroke="#888888" stroke-opacity="0.01" stroke-width="0.3"><path d="
M 129.00 69.00 
C 130.66 69.00 132.34 68.96 134.00 69.00
C 134.15 68.95 134.00 68.00 134.00 68.00
C 132.04 68.02 130.34 67.71 129.00 69.00 Z"/>
</g>
<g fill="None" fill-opacity="0.0" stroke="#B7B7B7" stroke-opacity="0.02" stroke-width="0.3"><path d="
M 134.00 69.00 
C 136.00 69.05 138.00 68.96 140.00 69.00
C 140.27 70.28 139.23 71.72 138.00 72.00
C 137.75 72.26 138.21 73.62 138.00 74.00
C 141.75 69.86 140.45 66.73 134.00 68.00
C 134.00 68.00 134.15 68.95 134.00 69.00 Z"/>
</g>
<g fill="None" fill-opacity="0.0" stroke="#F6F6F6" stroke-opacity="0.01" stroke-width="0.3"><path d="
M 114.00 79.00 
C 116.94 76.47 120.74 70.78 124.00 69.00
C 120.03 70.77 116.99 75.98 114.00 79.00 Z"/>
</g>
<g fill="None" fill-opacity="0.0" stroke="#1B1B1B" stroke-opacity="0.44" stroke-width="0.3"><path d="
M 125.00 70.00 
C 127.75 68.98 137.55 69.18 138.00 72.00
C 139.23 71.72 140.27 70.28 140.00 69.00
C 138.00 68.96 136.00 69.05 134.00 69.00
C 132.34 68.96 130.66 69.00 129.00 69.00
C 129.00 69.00 128.49 69.06 128.00 69.00
C 126.42 68.81 126.01 69.41 125.00 70.00 Z"/>
</g>
<g fill="None" fill-opacity="0.0" stroke="#0E0E0E" stroke-opacity="0.70" stroke-width="0.3"><path d="
M 99.00 96.00 
C 103.24 92.38 107.78 86.38 112.25 83.25 C 116.71 80.11 120.36 71.71 125.00 70.00
C 115.21 75.73 107.00 88.00 99.00 96.00 Z"/>
</g>
<g fill="None" fill-opacity="0.0" stroke="#000000" stroke-opacity="0.98" stroke-width="0.3"><path d="
M 99.00 96.00 
C 91.99 101.99 85.85 109.31 79.00 115.00
C 77.78 116.01 76.97 116.83 76.00 118.00
C 71.07 123.94 64.70 128.96 60.00 135.00
C 71.39 133.36 85.56 134.67 97.00 135.00 C 108.44 135.33 123.87 132.17 134.00 136.00
C 136.27 136.86 142.25 141.03 141.00 143.00
C 141.00 143.00 140.95 143.50 141.00 144.00
C 143.93 147.96 140.80 154.52 137.00 157.00
C 137.00 157.00 137.09 157.52 137.00 158.00
C 136.47 160.71 134.19 162.47 132.00 164.00
C 132.00 164.00 132.16 164.56 132.00 165.00
C 131.16 167.33 129.20 170.02 128.00 172.00
C 125.93 175.42 123.39 178.06 121.00 181.00
C 119.58 182.75 118.21 184.73 118.00 187.00
C 119.04 187.53 121.81 187.00 123.00 187.00
C 123.66 186.93 133.36 185.20 133.00 186.00
C 136.72 184.07 139.94 179.80 143.00 177.00
C 144.05 175.02 149.29 167.40 154.25 163.25 C 159.20 159.09 164.78 152.47 169.00 150.00
C 171.93 148.28 174.15 145.68 177.00 143.00
C 181.62 135.96 189.95 127.07 197.00 120.00
C 194.67 120.00 192.33 120.00 190.00 120.00
C 179.09 119.78 166.76 120.92 156.00 120.00 C 145.24 119.08 132.91 122.70 123.00 119.00
C 119.66 117.75 118.49 115.85 117.00 113.00
C 115.07 109.31 114.60 106.38 116.00 102.00
C 116.75 99.66 118.51 95.94 121.00 95.00
C 124.82 93.95 127.13 87.63 129.75 84.75 C 132.37 81.87 135.19 77.10 138.00 74.00
C 138.21 73.62 137.75 72.26 138.00 72.00
C 137.55 69.18 127.75 68.98 125.00 70.00
C 120.36 71.71 116.71 80.11 112.25 83.25 C 107.78 86.38 103.24 92.38 99.00 96.00 Z"/>
</g>
<g fill="None" fill-opacity="0.0" stroke="#6C6C6C" stroke-opacity="0.13" stroke-width="0.3"><path d="
M 155.00 84.00 
C 156.04 82.89 158.02 82.07 159.00 81.00
C 160.92 77.90 163.50 75.20 165.00 72.00
C 161.13 75.13 158.23 79.73 155.00 84.00 Z"/>
</g>
<g fill="None" fill-opacity="0.0" stroke="#303030" stroke-opacity="0.39" stroke-width="0.3"><path d="
M 155.00 84.00 
C 154.41 84.78 153.35 86.04 153.00 87.00
C 156.22 85.28 157.10 84.06 159.00 81.00
C 158.02 82.07 156.04 82.89 155.00 84.00 Z"/>
</g>
<g fill="None" fill-opacity="0.0" stroke="#C3C3C3" stroke-opacity="0.02" stroke-width="0.3"><path d="
M 85.00 108.00 
C 93.10 101.27 101.08 93.02 108.00 85.00
C 100.43 92.50 92.65 100.50 85.00 108.00 Z"/>
</g>
<g fill="None" fill-opacity="0.0" stroke="#535353" stroke-opacity="0.20" stroke-width="0.3"><path d="
M 149.00 93.00 
C 148.33 94.03 147.62 94.99 147.00 96.00
C 149.28 93.54 151.78 91.38 153.00 88.00
C 150.82 89.42 150.36 90.90 149.00 93.00 Z"/>
</g>
<g fill="None" fill-opacity="0.0" stroke="#ACACAC" stroke-opacity="0.04" stroke-width="0.3"><path d="
M 143.00 100.00 
C 143.67 99.21 145.38 98.73 146.00 98.00
C 146.32 97.28 146.58 96.69 147.00 96.00
C 147.62 94.99 148.33 94.03 149.00 93.00
C 147.18 95.33 144.79 97.38 143.00 100.00 Z"/>
</g>
<g fill="None" fill-opacity="0.0" stroke="#000000" stroke-opacity="0.62" stroke-width="0.3"><path d="
M 116.00 102.00 
C 116.72 100.43 119.76 97.27 121.00 96.00
C 121.00 96.00 120.87 95.03 121.00 95.00
C 118.51 95.94 116.75 99.66 116.00 102.00 Z"/>
</g>
<g fill="None" fill-opacity="0.0" stroke="#393939" stroke-opacity="0.09" stroke-width="0.3"><path d="
M 116.00 102.00 
C 114.60 106.38 115.07 109.31 117.00 113.00
C 114.24 105.23 119.56 102.57 121.00 96.00
C 119.76 97.27 116.72 100.43 116.00 102.00 Z"/>
</g>
<g fill="None" fill-opacity="0.0" stroke="#454545" stroke-opacity="0.31" stroke-width="0.3"><path d="
M 143.00 100.00 
C 142.79 100.30 142.07 101.61 142.00 102.00
C 144.52 101.40 144.95 100.32 146.00 98.00
C 145.38 98.73 143.67 99.21 143.00 100.00 Z"/>
</g>
<g fill="None" fill-opacity="0.0" stroke="#B5B5B5" stroke-opacity="0.06" stroke-width="0.3"><path d="
M 137.00 108.00 
C 137.03 107.42 141.43 104.16 142.00 103.00
C 141.00 103.45 136.88 106.17 137.00 108.00 Z"/>
</g>
<g fill="None" fill-opacity="0.0" stroke="#595959" stroke-opacity="0.02" stroke-width="0.3"><path d="
M 161.00 109.00 
C 163.09 107.67 164.35 105.82 166.00 104.00
C 164.57 105.35 162.55 107.83 161.00 109.00 Z"/>
</g>
<g fill="None" fill-opacity="0.0" stroke="#B7B7B7" stroke-opacity="0.03" stroke-width="0.3"><path d="
M 58.00 135.00 
C 64.36 130.55 70.62 123.49 76.00 118.00
C 76.97 116.83 77.78 116.01 79.00 115.00
C 80.05 113.94 81.02 112.22 82.00 111.00
C 75.26 117.52 62.38 126.05 58.00 135.00 Z"/>
</g>
<g fill="None" fill-opacity="0.0" stroke="#3F3F3F" stroke-opacity="0.26" stroke-width="0.3"><path d="
M 58.00 135.00 
C 58.00 135.00 57.75 135.75 58.00 136.00
C 58.25 136.25 59.00 136.00 59.00 136.00
C 59.26 135.88 59.79 135.27 60.00 135.00
C 64.70 128.96 71.07 123.94 76.00 118.00
C 70.62 123.49 64.36 130.55 58.00 135.00 Z"/>
</g>
<g fill="None" fill-opacity="0.0" stroke="#444444" stroke-opacity="0.21" stroke-width="0.3"><path d="
M 123.00 119.00 
C 132.91 122.70 145.24 119.08 156.00 120.00 C 166.76 120.92 179.09 119.78 190.00 120.00
C 190.01 120.00 190.00 119.00 190.00 119.00
C 179.06 119.00 165.70 119.84 155.00 119.00 C 144.30 118.16 132.04 121.38 123.00 119.00 Z"/>
</g>
<g fill="None" fill-opacity="0.0" stroke="#D5D5D5" stroke-opacity="0.02" stroke-width="0.3"><path d="
M 191.00 119.00 
C 193.67 119.00 196.33 119.00 199.00 119.00
C 197.23 117.23 192.85 117.63 191.00 119.00 Z"/>
</g>
<g fill="None" fill-opacity="0.0" stroke="#171717" stroke-opacity="0.42" stroke-width="0.3"><path d="
M 190.00 120.00 
C 192.33 120.00 194.67 120.00 197.00 120.00
C 189.95 127.07 181.62 135.96 177.00 143.00
C 183.49 136.88 189.47 130.15 196.00 124.00
C 197.22 122.54 198.95 120.96 199.00 119.00
C 196.33 119.00 193.67 119.00 191.00 119.00
C 191.00 119.00 190.50 119.00 190.00 119.00
C 190.00 119.00 190.01 120.00 190.00 120.00 Z"/>
</g>
<g fill="None" fill-opacity="0.0" stroke="#919191" stroke-opacity="0.04" stroke-width="0.3"><path d="
M 196.00 124.00 
C 197.46 122.63 201.08 121.08 199.00 119.00
C 198.95 120.96 197.22 122.54 196.00 124.00 Z"/>
</g>
<g fill="None" fill-opacity="0.0" stroke="#040404" stroke-opacity="0.54" stroke-width="0.3"><path d="
M 59.00 136.00 
C 63.67 136.00 68.33 136.00 73.00 136.00
C 82.89 136.00 93.14 135.13 103.00 136.00 C 112.86 136.87 124.38 133.80 134.00 136.00
C 123.87 132.17 108.44 135.33 97.00 135.00 C 85.56 134.67 71.39 133.36 60.00 135.00
C 59.79 135.27 59.26 135.88 59.00 136.00 Z"/>
</g>
<g fill="None" fill-opacity="0.0" stroke="#999999" stroke-opacity="0.03" stroke-width="0.3"><path d="
M 73.00 137.00 
C 72.96 137.00 73.00 136.00 73.00 136.00
C 68.33 136.00 63.67 136.00 59.00 136.00
C 59.00 136.00 58.25 136.25 58.00 136.00
C 60.42 138.50 69.36 137.00 73.00 137.00 Z"/>
</g>
<g fill="None" fill-opacity="0.0" stroke="#404040" stroke-opacity="0.05" stroke-width="0.3"><path d="
M 73.00 137.00 
C 84.33 137.00 99.01 136.40 110.00 137.00 C 120.99 137.60 134.59 132.97 141.00 143.00
C 142.25 141.03 136.27 136.86 134.00 136.00
C 124.38 133.80 112.86 136.87 103.00 136.00 C 93.14 135.13 82.89 136.00 73.00 136.00
C 73.00 136.00 72.96 137.00 73.00 137.00 Z"/>
</g>
<g fill="None" fill-opacity="0.0" stroke="#7B7B7B" stroke-opacity="0.07" stroke-width="0.3"><path d="
M 19.00 223.00 
C 19.35 222.77 20.00 223.00 20.00 223.00
C 26.85 219.65 31.44 211.34 37.25 206.25 C 43.05 201.15 49.56 194.44 55.00 189.00
C 62.01 181.99 68.93 172.88 76.75 166.75 C 84.57 160.62 90.18 149.31 99.00 145.00
C 99.40 144.80 100.00 145.00 100.00 145.00
C 100.25 144.75 100.00 144.00 100.00 144.00
C 91.87 144.87 86.28 158.54 79.25 163.25 C 72.21 167.96 66.12 177.46 59.25 183.25 C 52.38 189.03 46.09 196.98 39.25 203.25 C 32.41 209.52 25.49 216.35 19.00 223.00 Z"/>
</g>
<g fill="None" fill-opacity="0.0" stroke="#2F2F2F" stroke-opacity="0.22" stroke-width="0.3"><path d="
M 100.00 145.00 
C 106.33 145.00 112.67 145.00 119.00 145.00
C 119.34 148.11 114.62 148.88 115.00 152.00
C 117.65 150.46 119.86 147.82 121.00 145.00
C 114.59 143.67 106.82 143.38 100.00 144.00
C 100.00 144.00 100.25 144.75 100.00 145.00 Z"/>
</g>
<g fill="None" fill-opacity="0.0" stroke="#676767" stroke-opacity="0.11" stroke-width="0.3"><path d="
M 137.00 157.00 
C 140.80 154.52 143.93 147.96 141.00 144.00
C 141.52 149.55 139.73 152.62 137.00 157.00 Z"/>
</g>
<g fill="None" fill-opacity="0.0" stroke="#141414" stroke-opacity="0.42" stroke-width="0.3"><path d="
M 55.00 189.00 
C 69.06 174.94 87.61 161.29 99.00 145.00
C 90.18 149.31 84.57 160.62 76.75 166.75 C 68.93 172.88 62.01 181.99 55.00 189.00 Z"/>
</g>
<g fill="None" fill-opacity="0.0" stroke="#000000" stroke-opacity="0.98" stroke-width="0.3"><path d="
M 55.00 189.00 
C 42.52 201.48 26.07 214.60 16.00 229.00
C 26.33 229.00 36.67 228.97 47.00 229.00 C 57.33 229.03 67.67 228.93 78.00 229.00 C 88.33 229.07 98.68 228.84 109.00 229.00 C 119.32 229.16 130.80 228.65 141.00 229.00 C 151.20 229.35 162.15 228.21 172.00 229.00 C 181.85 229.79 193.81 227.24 203.00 229.00 C 212.19 230.76 226.93 224.77 234.00 230.00
C 234.50 230.00 235.00 230.00 235.00 230.00
C 237.58 230.69 241.87 231.45 243.00 228.00
C 243.15 227.55 243.00 226.50 243.00 226.00
C 240.42 219.92 244.12 211.14 241.00 205.00
C 225.00 205.00 209.00 205.00 193.00 205.00
C 190.33 205.00 187.67 205.00 185.00 205.00
C 173.39 205.00 162.06 205.00 150.00 205.00
C 148.00 205.00 146.00 205.00 144.00 205.00
C 138.33 205.00 132.67 205.00 127.00 205.00
C 119.33 205.00 111.67 205.00 104.00 205.00
C 102.00 205.00 100.00 205.00 98.00 205.00
C 93.61 205.43 88.09 206.14 83.00 206.00
C 81.06 205.95 78.15 206.74 77.00 205.00
C 79.95 196.52 88.62 187.05 94.00 181.00
C 94.56 179.98 94.54 178.96 95.00 178.00
C 95.85 176.21 98.20 173.75 100.00 173.00
C 102.21 169.86 103.69 167.72 106.00 164.00
C 107.29 161.92 108.48 160.74 110.00 159.00
C 110.57 158.20 111.32 156.58 112.00 156.00
C 112.61 154.93 112.05 153.75 115.00 153.00
C 115.00 153.00 114.91 152.48 115.00 152.00
C 114.62 148.88 119.34 148.11 119.00 145.00
C 112.67 145.00 106.33 145.00 100.00 145.00
C 100.00 145.00 99.40 144.80 99.00 145.00
C 87.61 161.29 69.06 174.94 55.00 189.00 Z"/>
</g>
<g fill="None" fill-opacity="0.0" stroke="#101010" stroke-opacity="0.42" stroke-width="0.3"><path d="
M 143.00 177.00 
C 152.36 168.43 160.50 158.50 169.00 150.00
C 164.78 152.47 159.20 159.09 154.25 163.25 C 149.29 167.40 144.05 175.02 143.00 177.00 Z"/>
</g>
<g fill="None" fill-opacity="0.0" stroke="#101010" stroke-opacity="0.45" stroke-width="0.3"><path d="
M 112.00 156.00 
C 112.48 155.59 113.62 155.38 114.00 155.00
C 114.21 154.70 114.93 153.39 115.00 153.00
C 112.05 153.75 112.61 154.93 112.00 156.00 Z"/>
</g>
<g fill="None" fill-opacity="0.0" stroke="#494949" stroke-opacity="0.05" stroke-width="0.3"><path d="
M 112.00 156.00 
C 111.32 156.58 110.57 158.20 110.00 159.00
C 109.30 159.98 108.64 161.03 108.00 162.00
C 109.95 159.69 112.18 157.65 114.00 155.00
C 113.62 155.38 112.48 155.59 112.00 156.00 Z"/>
</g>
<g fill="None" fill-opacity="0.0" stroke="#838383" stroke-opacity="0.08" stroke-width="0.3"><path d="
M 132.00 164.00 
C 134.19 162.47 136.47 160.71 137.00 158.00
C 135.14 159.78 133.66 161.82 132.00 164.00 Z"/>
</g>
<g fill="None" fill-opacity="0.0" stroke="#171717" stroke-opacity="0.33" stroke-width="0.3"><path d="
M 106.00 164.00 
C 107.27 162.85 107.01 163.51 108.00 162.00
C 108.64 161.03 109.30 159.98 110.00 159.00
C 108.48 160.74 107.29 161.92 106.00 164.00 Z"/>
</g>
<g fill="None" fill-opacity="0.0" stroke="#7F7F7F" stroke-opacity="0.08" stroke-width="0.3"><path d="
M 124.00 175.00 
C 125.13 174.03 127.08 173.06 128.00 172.00
C 129.20 170.02 131.16 167.33 132.00 165.00
C 128.33 167.56 126.68 171.49 124.00 175.00 Z"/>
</g>
<g fill="None" fill-opacity="0.0" stroke="#1A1A1A" stroke-opacity="0.52" stroke-width="0.3"><path d="
M 124.00 175.00 
C 124.00 175.00 124.16 175.56 124.00 176.00
C 123.42 177.60 122.19 179.81 121.00 181.00
C 123.39 178.06 125.93 175.42 128.00 172.00
C 127.08 173.06 125.13 174.03 124.00 175.00 Z"/>
</g>
<g fill="None" fill-opacity="0.0" stroke="#121212" stroke-opacity="0.42" stroke-width="0.3"><path d="
M 95.00 178.00 
C 95.85 176.66 98.71 174.90 100.00 174.00
C 100.00 174.00 99.76 173.33 100.00 173.00
C 98.20 173.75 95.85 176.21 95.00 178.00 Z"/>
</g>
<g fill="None" fill-opacity="0.0" stroke="#373737" stroke-opacity="0.07" stroke-width="0.3"><path d="
M 95.00 178.00 
C 94.54 178.96 94.56 179.98 94.00 181.00
C 95.79 178.98 98.70 176.66 100.00 174.00
C 98.71 174.90 95.85 176.66 95.00 178.00 Z"/>
</g>
<g fill="None" fill-opacity="0.0" stroke="#A2A2A2" stroke-opacity="0.06" stroke-width="0.3"><path d="
M 118.00 183.00 
C 118.73 182.20 120.28 181.72 121.00 181.00
C 122.19 179.81 123.42 177.60 124.00 176.00
C 122.12 177.80 119.25 180.45 118.00 183.00 Z"/>
</g>
<g fill="None" fill-opacity="0.0" stroke="#313131" stroke-opacity="0.27" stroke-width="0.3"><path d="
M 118.00 183.00 
C 118.00 183.00 118.22 183.64 118.00 184.00
C 117.30 185.14 116.47 186.22 118.00 187.00
C 118.21 184.73 119.58 182.75 121.00 181.00
C 120.28 181.72 118.73 182.20 118.00 183.00 Z"/>
</g>
<g fill="None" fill-opacity="0.0" stroke="#9E9E9E" stroke-opacity="0.02" stroke-width="0.3"><path d="
M 131.00 187.00 
C 128.58 187.51 125.48 187.00 123.00 187.00
C 121.81 187.00 119.04 187.53 118.00 187.00
C 116.47 186.22 117.30 185.14 118.00 184.00
C 111.25 187.82 128.20 188.55 131.00 187.00 Z"/>
</g>
<g fill="None" fill-opacity="0.0" stroke="#0C0C0C" stroke-opacity="0.42" stroke-width="0.3"><path d="
M 123.00 187.00 
C 125.48 187.00 128.58 187.51 131.00 187.00
C 131.63 186.65 132.33 186.35 133.00 186.00
C 133.36 185.20 123.66 186.93 123.00 187.00 Z"/>
</g>
<g fill="None" fill-opacity="0.0" stroke="#181818" stroke-opacity="0.63" stroke-width="0.3"><path d="
M 20.00 223.00 
C 18.28 224.72 17.01 226.59 15.00 228.00
C 14.91 228.48 15.00 229.00 15.00 229.00
C 15.25 229.25 16.00 229.00 16.00 229.00
C 26.07 214.60 42.52 201.48 55.00 189.00
C 49.56 194.44 43.05 201.15 37.25 206.25 C 31.44 211.34 26.85 219.65 20.00 223.00 Z"/>
</g>
<g fill="None" fill-opacity="0.0" stroke="#474747" stroke-opacity="0.04" stroke-width="0.3"><path d="
M 78.00 205.00 
C 79.67 205.00 81.33 205.00 83.00 205.00
C 85.00 205.00 87.00 205.00 89.00 205.00
C 89.10 204.98 89.00 204.00 89.00 204.00
C 85.65 204.00 80.55 203.12 78.00 205.00 Z"/>
</g>
<g fill="None" fill-opacity="0.0" stroke="#979797" stroke-opacity="0.02" stroke-width="0.3"><path d="
M 89.00 205.00 
C 92.00 205.00 95.00 205.00 98.00 205.00
C 100.00 205.00 102.00 205.00 104.00 205.00
C 99.68 204.58 94.06 204.00 89.00 204.00
C 89.00 204.00 89.10 204.98 89.00 205.00 Z"/>
</g>
<g fill="None" fill-opacity="0.0" stroke="#A4A4A4" stroke-opacity="0.01" stroke-width="0.3"><path d="
M 127.00 205.00 
C 132.67 205.00 138.33 205.00 144.00 205.00
C 143.90 204.98 144.00 204.00 144.00 204.00
C 138.26 203.84 132.04 204.51 127.00 205.00 Z"/>
</g>
<g fill="None" fill-opacity="0.0" stroke="#FFFFFF" stroke-opacity="0.00" stroke-width="0.3"><path d="
M 144.00 205.00 
C 146.00 205.00 148.00 205.00 150.00 205.00
C 148.57 204.84 146.12 204.06 144.00 204.00
C 144.00 204.00 143.90 204.98 144.00 205.00 Z"/>
</g>
<g fill="None" fill-opacity="0.0" stroke="#DDDDDD" stroke-opacity="0.00" stroke-width="0.3"><path d="
M 185.00 205.00 
C 187.67 205.00 190.33 205.00 193.00 205.00
C 192.96 205.00 193.00 204.00 193.00 204.00
C 190.23 204.00 187.10 204.80 185.00 205.00 Z"/>
</g>
<g fill="None" fill-opacity="0.0" stroke="#A0A0A0" stroke-opacity="0.03" stroke-width="0.3"><path d="
M 193.00 205.00 
C 209.00 205.00 225.00 205.00 241.00 205.00
C 241.50 205.00 242.00 205.00 242.00 205.00
C 236.56 200.99 225.17 204.95 218.00 204.00 C 210.83 203.05 200.46 204.00 193.00 204.00
C 193.00 204.00 192.96 205.00 193.00 205.00 Z"/>
</g>
<g fill="None" fill-opacity="0.0" stroke="#040404" stroke-opacity="0.68" stroke-width="0.3"><path d="
M 83.00 206.00 
C 82.96 206.00 83.00 205.00 83.00 205.00
C 81.33 205.00 79.67 205.00 78.00 205.00
C 78.00 205.00 77.15 205.23 77.00 205.00
C 78.15 206.74 81.06 205.95 83.00 206.00 Z"/>
</g>
<g fill="None" fill-opacity="0.0" stroke="#0D0D0D" stroke-opacity="0.49" stroke-width="0.3"><path d="
M 83.00 206.00 
C 88.09 206.14 93.61 205.43 98.00 205.00
C 95.00 205.00 92.00 205.00 89.00 205.00
C 87.00 205.00 85.00 205.00 83.00 205.00
C 83.00 205.00 82.96 206.00 83.00 206.00 Z"/>
</g>
<g fill="None" fill-opacity="0.0" stroke="#121212" stroke-opacity="0.48" stroke-width="0.3"><path d="
M 243.00 226.00 
C 243.00 222.67 243.00 219.33 243.00 216.00
C 243.00 212.78 243.46 209.18 243.00 206.00
C 242.78 205.70 242.35 205.03 242.00 205.00
C 242.00 205.00 241.50 205.00 241.00 205.00
C 244.12 211.14 240.42 219.92 243.00 226.00 Z"/>
</g>
<g fill="None" fill-opacity="0.0" stroke="#A5A5A5" stroke-opacity="0.02" stroke-width="0.3"><path d="
M 243.00 216.00 
C 243.00 215.96 244.00 216.00 244.00 216.00
C 244.00 212.85 244.76 208.39 243.00 206.00
C 243.46 209.18 243.00 212.78 243.00 216.00 Z"/>
</g>
<g fill="None" fill-opacity="0.0" stroke="#5D5D5D" stroke-opacity="0.03" stroke-width="0.3"><path d="
M 243.00 226.00 
C 243.00 226.50 243.15 227.55 243.00 228.00
C 245.12 227.38 244.00 218.04 244.00 216.00
C 244.00 216.00 243.00 215.96 243.00 216.00
C 243.00 219.33 243.00 222.67 243.00 226.00 Z"/>
</g>
<g fill="None" fill-opacity="0.0" stroke="#494949" stroke-opacity="0.18" stroke-width="0.3"><path d="
M 16.00 226.00 
C 15.59 226.56 15.13 227.31 15.00 228.00
C 17.01 226.59 18.28 224.72 20.00 223.00
C 20.00 223.00 19.35 222.77 19.00 223.00
C 17.99 224.03 16.84 224.85 16.00 226.00 Z"/>
</g>
<g fill="None" fill-opacity="0.0" stroke="#A8A8A8" stroke-opacity="0.04" stroke-width="0.3"><path d="
M 23.00 231.00 
C 22.96 231.00 23.00 230.00 23.00 230.00
C 20.47 230.00 16.71 230.77 15.00 229.00
C 15.00 229.00 14.91 228.48 15.00 228.00
C 15.13 227.31 15.59 226.56 16.00 226.00
C 14.05 226.43 13.99 228.67 13.00 230.00
C 15.93 231.61 19.66 231.00 23.00 231.00 Z"/>
</g>
<g fill="None" fill-opacity="0.0" stroke="#040404" stroke-opacity="0.49" stroke-width="0.3"><path d="
M 23.00 230.00 
C 26.67 230.00 30.33 230.00 34.00 230.00
C 37.67 230.00 41.33 230.00 45.00 230.00
C 47.33 230.00 49.67 230.00 52.00 230.00
C 53.00 230.00 54.00 230.00 55.00 230.00
C 61.67 230.00 68.33 230.00 75.00 230.00
C 99.67 230.00 124.33 230.00 149.00 230.00
C 163.00 230.00 177.00 230.00 191.00 230.00
C 205.33 230.00 219.67 230.00 234.00 230.00
C 226.93 224.77 212.19 230.76 203.00 229.00 C 193.81 227.24 181.85 229.79 172.00 229.00 C 162.15 228.21 151.20 229.35 141.00 229.00 C 130.80 228.65 119.32 229.16 109.00 229.00 C 98.68 228.84 88.33 229.07 78.00 229.00 C 67.67 228.93 57.33 229.03 47.00 229.00 C 36.67 228.97 26.33 229.00 16.00 229.00
C 16.00 229.00 15.25 229.25 15.00 229.00
C 16.71 230.77 20.47 230.00 23.00 230.00 Z"/>
</g>
<g fill="None" fill-opacity="0.0" stroke="#7B7B7B" stroke-opacity="0.01" stroke-width="0.3"><path d="
M 23.00 231.00 
C 26.67 231.00 30.33 231.00 34.00 231.00
C 33.96 231.00 34.00 230.00 34.00 230.00
C 30.33 230.00 26.67 230.00 23.00 230.00
C 23.00 230.00 22.96 231.00 23.00 231.00 Z"/>
</g>
<g fill="None" fill-opacity="0.0" stroke="#535353" stroke-opacity="0.01" stroke-width="0.3"><path d="
M 34.00 231.00 
C 37.66 231.00 41.34 231.07 45.00 231.00
C 45.04 231.00 45.00 230.00 45.00 230.00
C 41.33 230.00 37.67 230.00 34.00 230.00
C 34.00 230.00 33.96 231.00 34.00 231.00 Z"/>
</g>
<g fill="None" fill-opacity="0.0" stroke="#808080" stroke-opacity="0.01" stroke-width="0.3"><path d="
M 45.00 231.00 
C 47.63 230.95 49.97 230.45 52.00 230.00
C 49.67 230.00 47.33 230.00 45.00 230.00
C 45.00 230.00 45.04 231.00 45.00 231.00 Z"/>
</g>
<g fill="None" fill-opacity="0.0" stroke="#808080" stroke-opacity="0.01" stroke-width="0.3"><path d="
M 75.00 231.00 
C 74.96 231.00 75.00 230.00 75.00 230.00
C 68.33 230.00 61.67 230.00 55.00 230.00
C 60.94 231.30 68.30 231.00 75.00 231.00 Z"/>
</g>
<g fill="None" fill-opacity="0.0" stroke="#4B4B4B" stroke-opacity="0.02" stroke-width="0.3"><path d="
M 75.00 231.00 
C 99.67 231.00 124.33 231.00 149.00 231.00
C 148.96 231.00 149.00 230.00 149.00 230.00
C 124.33 230.00 99.67 230.00 75.00 230.00
C 75.00 230.00 74.96 231.00 75.00 231.00 Z"/>
</g>
<g fill="None" fill-opacity="0.0" stroke="#797979" stroke-opacity="0.01" stroke-width="0.3"><path d="
M 149.00 231.00 
C 163.00 231.00 177.00 231.00 191.00 231.00
C 190.96 231.00 191.00 230.00 191.00 230.00
C 177.00 230.00 163.00 230.00 149.00 230.00
C 149.00 230.00 148.96 231.00 149.00 231.00 Z"/>
</g>
<g fill="None" fill-opacity="0.0" stroke="#525252" stroke-opacity="0.01" stroke-width="0.3"><path d="
M 191.00 231.00 
C 197.43 231.00 207.98 231.89 214.00 231.00 C 220.02 230.11 231.13 234.02 235.00 230.00
C 235.00 230.00 234.50 230.00 234.00 230.00
C 219.67 230.00 205.33 230.00 191.00 230.00
C 191.00 230.00 190.96 231.00 191.00 231.00 Z"/>
</g>
<g fill="#000000" fill-opacity="0.00" stroke="None">
<path d="
M 0.00 259.00 
L 255.00 259.00
L 255.00 0.00
L 0.00 0.00
L 0.00 259.00
M 25.00 26.00 
C 96.72 22.63 170.52 26.44 243.00 25.00
C 242.89 26.00 243.47 27.73 242.00 28.00
C 241.81 28.01 241.32 28.80 241.00 29.00
C 237.10 34.01 231.38 40.67 226.00 44.00
C 225.68 44.20 225.20 44.68 225.00 45.00
C 221.18 51.17 214.04 56.01 209.00 61.00
C 195.59 76.54 179.35 89.27 166.00 104.00
C 164.35 105.82 163.09 107.67 161.00 109.00
C 154.22 113.33 144.83 109.91 137.00 111.00
C 137.00 110.00 137.00 109.00 137.00 108.00
C 136.88 106.17 141.00 103.45 142.00 103.00
C 142.20 102.60 142.00 102.00 142.00 102.00
C 142.07 101.61 142.79 100.30 143.00 100.00
C 144.79 97.38 147.18 95.33 149.00 93.00
C 150.36 90.90 150.82 89.42 153.00 88.00
C 153.16 87.56 153.00 87.00 153.00 87.00
C 153.35 86.04 154.41 84.78 155.00 84.00
C 158.23 79.73 161.13 75.13 165.00 72.00
C 165.28 71.77 165.77 71.28 166.00 71.00
C 165.76 67.94 171.36 63.30 173.00 61.00
C 173.44 60.38 173.62 59.62 174.00 59.00
C 175.02 57.32 177.01 56.37 178.00 55.00
C 178.76 53.65 180.24 52.73 180.00 51.00
C 125.00 51.00 70.00 51.00 15.00 51.00
C 8.43 47.75 16.47 31.23 12.00 26.00
C 14.49 26.29 16.39 24.36 19.00 25.00
C 21.26 25.10 22.66 26.11 25.00 26.00
M 128.00 69.00 
C 128.49 69.06 129.00 69.00 129.00 69.00
C 130.34 67.71 132.04 68.02 134.00 68.00
C 140.45 66.73 141.75 69.86 138.00 74.00
C 135.19 77.10 132.37 81.87 129.75 84.75 C 127.13 87.63 124.82 93.95 121.00 95.00
C 120.87 95.03 121.00 96.00 121.00 96.00
C 119.56 102.57 114.24 105.23 117.00 113.00
C 118.49 115.85 119.66 117.75 123.00 119.00
C 132.04 121.38 144.30 118.16 155.00 119.00 C 165.70 119.84 179.06 119.00 190.00 119.00
C 190.50 119.00 191.00 119.00 191.00 119.00
C 192.85 117.63 197.23 117.23 199.00 119.00
C 201.08 121.08 197.46 122.63 196.00 124.00
C 189.47 130.15 183.49 136.88 177.00 143.00
C 174.15 145.68 171.93 148.28 169.00 150.00
C 160.50 158.50 152.36 168.43 143.00 177.00
C 139.94 179.80 136.72 184.07 133.00 186.00
C 132.33 186.35 131.63 186.65 131.00 187.00
C 128.20 188.55 111.25 187.82 118.00 184.00
C 118.22 183.64 118.00 183.00 118.00 183.00
C 119.25 180.45 122.12 177.80 124.00 176.00
C 124.16 175.56 124.00 175.00 124.00 175.00
C 126.68 171.49 128.33 167.56 132.00 165.00
C 132.16 164.56 132.00 164.00 132.00 164.00
C 133.66 161.82 135.14 159.78 137.00 158.00
C 137.09 157.52 137.00 157.00 137.00 157.00
C 139.73 152.62 141.52 149.55 141.00 144.00
C 140.95 143.50 141.00 143.00 141.00 143.00
C 134.59 132.97 120.99 137.60 110.00 137.00 C 99.01 136.40 84.33 137.00 73.00 137.00
C 69.36 137.00 60.42 138.50 58.00 136.00
C 57.75 135.75 58.00 135.00 58.00 135.00
C 62.38 126.05 75.26 117.52 82.00 111.00
C 83.00 109.76 83.82 108.98 85.00 108.00
C 92.65 100.50 100.43 92.50 108.00 85.00
C 109.79 82.93 112.14 80.88 114.00 79.00
C 116.99 75.98 120.03 70.77 124.00 69.00
C 125.81 68.19 126.50 67.54 128.00 69.00
M 115.00 152.00 
C 114.91 152.48 115.00 153.00 115.00 153.00
C 114.93 153.39 114.21 154.70 114.00 155.00
C 112.18 157.65 109.95 159.69 108.00 162.00
C 107.01 163.51 107.27 162.85 106.00 164.00
C 103.69 167.72 102.21 169.86 100.00 173.00
C 99.76 173.33 100.00 174.00 100.00 174.00
C 98.70 176.66 95.79 178.98 94.00 181.00
C 88.62 187.05 79.95 196.52 77.00 205.00
C 77.15 205.23 78.00 205.00 78.00 205.00
C 80.55 203.12 85.65 204.00 89.00 204.00
C 94.06 204.00 99.68 204.58 104.00 205.00
C 111.67 205.00 119.33 205.00 127.00 205.00
C 132.04 204.51 138.26 203.84 144.00 204.00
C 146.12 204.06 148.57 204.84 150.00 205.00
C 162.06 205.00 173.39 205.00 185.00 205.00
C 187.10 204.80 190.23 204.00 193.00 204.00
C 200.46 204.00 210.83 203.05 218.00 204.00 C 225.17 204.95 236.56 200.99 242.00 205.00
C 242.35 205.03 242.78 205.70 243.00 206.00
C 244.76 208.39 244.00 212.85 244.00 216.00
C 244.00 218.04 245.12 227.38 243.00 228.00
C 241.87 231.45 237.58 230.69 235.00 230.00
C 231.13 234.02 220.02 230.11 214.00 231.00 C 207.98 231.89 197.43 231.00 191.00 231.00
C 177.00 231.00 163.00 231.00 149.00 231.00
C 124.33 231.00 99.67 231.00 75.00 231.00
C 68.30 231.00 60.94 231.30 55.00 230.00
C 54.00 230.00 53.00 230.00 52.00 230.00
C 49.97 230.45 47.63 230.95 45.00 231.00
C 41.34 231.07 37.66 231.00 34.00 231.00
C 30.33 231.00 26.67 231.00 23.00 231.00
C 19.66 231.00 15.93 231.61 13.00 230.00
C 13.99 228.67 14.05 226.43 16.00 226.00
C 16.84 224.85 17.99 224.03 19.00 223.00
C 25.49 216.35 32.41 209.52 39.25 203.25 C 46.09 196.98 52.38 189.03 59.25 183.25 C 66.12 177.46 72.21 167.96 79.25 163.25 C 86.28 158.54 91.87 144.87 100.00 144.00
C 106.82 143.38 114.59 143.67 121.00 145.00
C 119.86 147.82 117.65 150.46 115.00 152.00 Z"/>
</g>
<g fill="#767676" fill-opacity="0.11" stroke="None">
<path d="
M 15.00 51.00 
C 13.83 50.14 14.13 48.22 14.00 47.00
C 13.56 42.80 13.92 38.22 14.00 34.00
C 14.09 29.59 13.11 25.37 19.00 26.00
C 18.95 25.99 19.00 25.00 19.00 25.00
C 16.39 24.36 14.49 26.29 12.00 26.00
C 16.47 31.23 8.43 47.75 15.00 51.00 Z"/>
</g>
<g fill="#171717" fill-opacity="0.58" stroke="None">
<path d="
M 19.00 26.00 
C 21.08 28.14 23.19 26.14 25.00 26.00
C 22.66 26.11 21.26 25.10 19.00 25.00
C 19.00 25.00 18.95 25.99 19.00 26.00 Z"/>
</g>
<g fill="#838383" fill-opacity="0.08" stroke="None">
<path d="
M 25.00 26.00 
C 35.08 25.22 44.83 26.31 55.00 26.00 C 65.17 25.69 75.76 26.09 86.00 26.00 C 96.24 25.91 106.76 25.92 117.00 26.00 C 127.24 26.08 137.81 25.70 148.00 26.00 C 158.19 26.30 168.96 25.29 179.00 26.00 C 189.04 26.71 200.31 24.40 210.00 26.00 C 219.69 27.60 232.09 22.45 241.00 26.00
C 241.34 26.13 242.51 27.96 242.00 28.00
C 243.47 27.73 242.89 26.00 243.00 25.00
C 170.52 26.44 96.72 22.63 25.00 26.00 Z"/>
</g>
<g fill="#000000" fill-opacity="0.96" stroke="None">
<path d="
M 14.00 34.00 
C 14.29 37.71 14.00 43.47 14.00 47.00
C 14.13 48.22 13.83 50.14 15.00 51.00
C 70.00 51.00 125.00 51.00 180.00 51.00
C 180.24 52.73 178.76 53.65 178.00 55.00
C 176.66 57.39 176.15 57.24 174.00 59.00
C 173.62 59.62 173.44 60.38 173.00 61.00
C 171.72 64.55 168.93 67.40 166.00 71.00
C 165.77 71.28 165.28 71.77 165.00 72.00
C 163.50 75.20 160.92 77.90 159.00 81.00
C 157.10 84.06 156.22 85.28 153.00 87.00
C 153.00 87.00 153.16 87.56 153.00 88.00
C 151.78 91.38 149.28 93.54 147.00 96.00
C 146.58 96.69 146.32 97.28 146.00 98.00
C 144.95 100.32 144.52 101.40 142.00 102.00
C 142.00 102.00 142.20 102.60 142.00 103.00
C 141.43 104.16 137.03 107.42 137.00 108.00
C 137.00 109.00 137.00 110.00 137.00 111.00
C 144.83 109.91 154.22 113.33 161.00 109.00
C 162.55 107.83 164.57 105.35 166.00 104.00
C 179.35 89.27 195.59 76.54 209.00 61.00
C 213.81 55.43 219.23 49.49 225.00 45.00
C 225.20 44.68 225.68 44.20 226.00 44.00
C 227.86 41.61 230.08 39.25 232.00 37.00
C 233.47 35.28 239.79 26.36 241.00 26.00
C 232.09 22.45 219.69 27.60 210.00 26.00 C 200.31 24.40 189.04 26.71 179.00 26.00 C 168.96 25.29 158.19 26.30 148.00 26.00 C 137.81 25.70 127.24 26.08 117.00 26.00 C 106.76 25.92 96.24 25.91 86.00 26.00 C 75.76 26.09 65.17 25.69 55.00 26.00 C 44.83 26.31 35.08 25.22 25.00 26.00
C 23.19 26.14 21.08 28.14 19.00 26.00
C 13.11 25.37 14.09 29.59 14.00 34.00 Z"/>
</g>
<g fill="#151515" fill-opacity="0.41" stroke="None">
<path d="
M 232.00 37.00 
C 234.59 34.41 237.92 30.90 241.00 29.00
C 241.32 28.80 241.81 28.01 242.00 28.00
C 242.51 27.96 241.34 26.13 241.00 26.00
C 239.79 26.36 233.47 35.28 232.00 37.00 Z"/>
</g>
<g fill="#5F5F5F" fill-opacity="0.04" stroke="None">
<path d="
M 232.00 37.00 
C 230.08 39.25 227.86 41.61 226.00 44.00
C 231.38 40.67 237.10 34.01 241.00 29.00
C 237.92 30.90 234.59 34.41 232.00 37.00 Z"/>
</g>
<g fill="#0B0B0B" fill-opacity="0.62" stroke="None">
<path d="
M 14.00 47.00 
C 14.00 43.47 14.29 37.71 14.00 34.00
C 13.92 38.22 13.56 42.80 14.00 47.00 Z"/>
</g>
<g fill="#535353" fill-opacity="0.02" stroke="None">
<path d="
M 209.00 61.00 
C 214.04 56.01 221.18 51.17 225.00 45.00
C 219.23 49.49 213.81 55.43 209.00 61.00 Z"/>
</g>
<g fill="#3B3B3B" fill-opacity="0.24" stroke="None">
<path d="
M 174.00 59.00 
C 176.15 57.24 176.66 57.39 178.00 55.00
C 177.01 56.37 175.02 57.32 174.00 59.00 Z"/>
</g>
<g fill="#686868" fill-opacity="0.18" stroke="None">
<path d="
M 166.00 71.00 
C 168.93 67.40 171.72 64.55 173.00 61.00
C 171.36 63.30 165.76 67.94 166.00 71.00 Z"/>
</g>
<g fill="#505050" fill-opacity="0.20" stroke="None">
<path d="
M 124.00 69.00 
C 120.74 70.78 116.94 76.47 114.00 79.00
C 112.14 80.88 109.79 82.93 108.00 85.00
C 101.08 93.02 93.10 101.27 85.00 108.00
C 83.82 108.98 83.00 109.76 82.00 111.00
C 81.02 112.22 80.05 113.94 79.00 115.00
C 85.85 109.31 91.99 101.99 99.00 96.00
C 107.00 88.00 115.21 75.73 125.00 70.00
C 126.01 69.41 126.42 68.81 128.00 69.00
C 126.50 67.54 125.81 68.19 124.00 69.00 Z"/>
</g>
<g fill="#888888" fill-opacity="0.01" stroke="None">
<path d="
M 129.00 69.00 
C 130.66 69.00 132.34 68.96 134.00 69.00
C 134.15 68.95 134.00 68.00 134.00 68.00
C 132.04 68.02 130.34 67.71 129.00 69.00 Z"/>
</g>
<g fill="#B7B7B7" fill-opacity="0.02" stroke="None">
<path d="
M 134.00 69.00 
C 136.00 69.05 138.00 68.96 140.00 69.00
C 140.27 70.28 139.23 71.72 138.00 72.00
C 137.75 72.26 138.21 73.62 138.00 74.00
C 141.75 69.86 140.45 66.73 134.00 68.00
C 134.00 68.00 134.15 68.95 134.00 69.00 Z"/>
</g>
<g fill="#F6F6F6" fill-opacity="0.01" stroke="None">
<path d="
M 114.00 79.00 
C 116.94 76.47 120.74 70.78 124.00 69.00
C 120.03 70.77 116.99 75.98 114.00 79.00 Z"/>
</g>
<g fill="#1B1B1B" fill-opacity="0.44" stroke="None">
<path d="
M 125.00 70.00 
C 127.75 68.98 137.55 69.18 138.00 72.00
C 139.23 71.72 140.27 70.28 140.00 69.00
C 138.00 68.96 136.00 69.05 134.00 69.00
C 132.34 68.96 130.66 69.00 129.00 69.00
C 129.00 69.00 128.49 69.06 128.00 69.00
C 126.42 68.81 126.01 69.41 125.00 70.00 Z"/>
</g>
<g fill="#0E0E0E" fill-opacity="0.70" stroke="None">
<path d="
M 99.00 96.00 
C 103.24 92.38 107.78 86.38 112.25 83.25 C 116.71 80.11 120.36 71.71 125.00 70.00
C 115.21 75.73 107.00 88.00 99.00 96.00 Z"/>
</g>
<g fill="#000000" fill-opacity="0.98" stroke="None">
<path d="
M 99.00 96.00 
C 91.99 101.99 85.85 109.31 79.00 115.00
C 77.78 116.01 76.97 116.83 76.00 118.00
C 71.07 123.94 64.70 128.96 60.00 135.00
C 71.39 133.36 85.56 134.67 97.00 135.00 C 108.44 135.33 123.87 132.17 134.00 136.00
C 136.27 136.86 142.25 141.03 141.00 143.00
C 141.00 143.00 140.95 143.50 141.00 144.00
C 143.93 147.96 140.80 154.52 137.00 157.00
C 137.00 157.00 137.09 157.52 137.00 158.00
C 136.47 160.71 134.19 162.47 132.00 164.00
C 132.00 164.00 132.16 164.56 132.00 165.00
C 131.16 167.33 129.20 170.02 128.00 172.00
C 125.93 175.42 123.39 178.06 121.00 181.00
C 119.58 182.75 118.21 184.73 118.00 187.00
C 119.04 187.53 121.81 187.00 123.00 187.00
C 123.66 186.93 133.36 185.20 133.00 186.00
C 136.72 184.07 139.94 179.80 143.00 177.00
C 144.05 175.02 149.29 167.40 154.25 163.25 C 159.20 159.09 164.78 152.47 169.00 150.00
C 171.93 148.28 174.15 145.68 177.00 143.00
C 181.62 135.96 189.95 127.07 197.00 120.00
C 194.67 120.00 192.33 120.00 190.00 120.00
C 179.09 119.78 166.76 120.92 156.00 120.00 C 145.24 119.08 132.91 122.70 123.00 119.00
C 119.66 117.75 118.49 115.85 117.00 113.00
C 115.07 109.31 114.60 106.38 116.00 102.00
C 116.75 99.66 118.51 95.94 121.00 95.00
C 124.82 93.95 127.13 87.63 129.75 84.75 C 132.37 81.87 135.19 77.10 138.00 74.00
C 138.21 73.62 137.75 72.26 138.00 72.00
C 137.55 69.18 127.75 68.98 125.00 70.00
C 120.36 71.71 116.71 80.11 112.25 83.25 C 107.78 86.38 103.24 92.38 99.00 96.00 Z"/>
</g>
<g fill="#6C6C6C" fill-opacity="0.13" stroke="None">
<path d="
M 155.00 84.00 
C 156.04 82.89 158.02 82.07 159.00 81.00
C 160.92 77.90 163.50 75.20 165.00 72.00
C 161.13 75.13 158.23 79.73 155.00 84.00 Z"/>
</g>
<g fill="#303030" fill-opacity="0.39" stroke="None">
<path d="
M 155.00 84.00 
C 154.41 84.78 153.35 86.04 153.00 87.00
C 156.22 85.28 157.10 84.06 159.00 81.00
C 158.02 82.07 156.04 82.89 155.00 84.00 Z"/>
</g>
<g fill="#C3C3C3" fill-opacity="0.02" stroke="None">
<path d="
M 85.00 108.00 
C 93.10 101.27 101.08 93.02 108.00 85.00
C 100.43 92.50 92.65 100.50 85.00 108.00 Z"/>
</g>
<g fill="#535353" fill-opacity="0.20" stroke="None">
<path d="
M 149.00 93.00 
C 148.33 94.03 147.62 94.99 147.00 96.00
C 149.28 93.54 151.78 91.38 153.00 88.00
C 150.82 89.42 150.36 90.90 149.00 93.00 Z"/>
</g>
<g fill="#ACACAC" fill-opacity="0.04" stroke="None">
<path d="
M 143.00 100.00 
C 143.67 99.21 145.38 98.73 146.00 98.00
C 146.32 97.28 146.58 96.69 147.00 96.00
C 147.62 94.99 148.33 94.03 149.00 93.00
C 147.18 95.33 144.79 97.38 143.00 100.00 Z"/>
</g>
<g fill="#000000" fill-opacity="0.62" stroke="None">
<path d="
M 116.00 102.00 
C 116.72 100.43 119.76 97.27 121.00 96.00
C 121.00 96.00 120.87 95.03 121.00 95.00
C 118.51 95.94 116.75 99.66 116.00 102.00 Z"/>
</g>
<g fill="#393939" fill-opacity="0.09" stroke="None">
<path d="
M 116.00 102.00 
C 114.60 106.38 115.07 109.31 117.00 113.00
C 114.24 105.23 119.56 102.57 121.00 96.00
C 119.76 97.27 116.72 100.43 116.00 102.00 Z"/>
</g>
<g fill="#454545" fill-opacity="0.31" stroke="None">
<path d="
M 143.00 100.00 
C 142.79 100.30 142.07 101.61 142.00 102.00
C 144.52 101.40 144.95 100.32 146.00 98.00
C 145.38 98.73 143.67 99.21 143.00 100.00 Z"/>
</g>
<g fill="#B5B5B5" fill-opacity="0.06" stroke="None">
<path d="
M 137.00 108.00 
C 137.03 107.42 141.43 104.16 142.00 103.00
C 141.00 103.45 136.88 106.17 137.00 108.00 Z"/>
</g>
<g fill="#595959" fill-opacity="0.02" stroke="None">
<path d="
M 161.00 109.00 
C 163.09 107.67 164.35 105.82 166.00 104.00
C 164.57 105.35 162.55 107.83 161.00 109.00 Z"/>
</g>
<g fill="#B7B7B7" fill-opacity="0.03" stroke="None">
<path d="
M 58.00 135.00 
C 64.36 130.55 70.62 123.49 76.00 118.00
C 76.97 116.83 77.78 116.01 79.00 115.00
C 80.05 113.94 81.02 112.22 82.00 111.00
C 75.26 117.52 62.38 126.05 58.00 135.00 Z"/>
</g>
<g fill="#3F3F3F" fill-opacity="0.26" stroke="None">
<path d="
M 58.00 135.00 
C 58.00 135.00 57.75 135.75 58.00 136.00
C 58.25 136.25 59.00 136.00 59.00 136.00
C 59.26 135.88 59.79 135.27 60.00 135.00
C 64.70 128.96 71.07 123.94 76.00 118.00
C 70.62 123.49 64.36 130.55 58.00 135.00 Z"/>
</g>
<g fill="#444444" fill-opacity="0.21" stroke="None">
<path d="
M 123.00 119.00 
C 132.91 122.70 145.24 119.08 156.00 120.00 C 166.76 120.92 179.09 119.78 190.00 120.00
C 190.01 120.00 190.00 119.00 190.00 119.00
C 179.06 119.00 165.70 119.84 155.00 119.00 C 144.30 118.16 132.04 121.38 123.00 119.00 Z"/>
</g>
<g fill="#D5D5D5" fill-opacity="0.02" stroke="None">
<path d="
M 191.00 119.00 
C 193.67 119.00 196.33 119.00 199.00 119.00
C 197.23 117.23 192.85 117.63 191.00 119.00 Z"/>
</g>
<g fill="#171717" fill-opacity="0.42" stroke="None">
<path d="
M 190.00 120.00 
C 192.33 120.00 194.67 120.00 197.00 120.00
C 189.95 127.07 181.62 135.96 177.00 143.00
C 183.49 136.88 189.47 130.15 196.00 124.00
C 197.22 122.54 198.95 120.96 199.00 119.00
C 196.33 119.00 193.67 119.00 191.00 119.00
C 191.00 119.00 190.50 119.00 190.00 119.00
C 190.00 119.00 190.01 120.00 190.00 120.00 Z"/>
</g>
<g fill="#919191" fill-opacity="0.04" stroke="None">
<path d="
M 196.00 124.00 
C 197.46 122.63 201.08 121.08 199.00 119.00
C 198.95 120.96 197.22 122.54 196.00 124.00 Z"/>
</g>
<g fill="#040404" fill-opacity="0.54" stroke="None">
<path d="
M 59.00 136.00 
C 63.67 136.00 68.33 136.00 73.00 136.00
C 82.89 136.00 93.14 135.13 103.00 136.00 C 112.86 136.87 124.38 133.80 134.00 136.00
C 123.87 132.17 108.44 135.33 97.00 135.00 C 85.56 134.67 71.39 133.36 60.00 135.00
C 59.79 135.27 59.26 135.88 59.00 136.00 Z"/>
</g>
<g fill="#999999" fill-opacity="0.03" stroke="None">
<path d="
M 73.00 137.00 
C 72.96 137.00 73.00 136.00 73.00 136.00
C 68.33 136.00 63.67 136.00 59.00 136.00
C 59.00 136.00 58.25 136.25 58.00 136.00
C 60.42 138.50 69.36 137.00 73.00 137.00 Z"/>
</g>
<g fill="#404040" fill-opacity="0.05" stroke="None">
<path d="
M 73.00 137.00 
C 84.33 137.00 99.01 136.40 110.00 137.00 C 120.99 137.60 134.59 132.97 141.00 143.00
C 142.25 141.03 136.27 136.86 134.00 136.00
C 124.38 133.80 112.86 136.87 103.00 136.00 C 93.14 135.13 82.89 136.00 73.00 136.00
C 73.00 136.00 72.96 137.00 73.00 137.00 Z"/>
</g>
<g fill="#7B7B7B" fill-opacity="0.07" stroke="None">
<path d="
M 19.00 223.00 
C 19.35 222.77 20.00 223.00 20.00 223.00
C 26.85 219.65 31.44 211.34 37.25 206.25 C 43.05 201.15 49.56 194.44 55.00 189.00
C 62.01 181.99 68.93 172.88 76.75 166.75 C 84.57 160.62 90.18 149.31 99.00 145.00
C 99.40 144.80 100.00 145.00 100.00 145.00
C 100.25 144.75 100.00 144.00 100.00 144.00
C 91.87 144.87 86.28 158.54 79.25 163.25 C 72.21 167.96 66.12 177.46 59.25 183.25 C 52.38 189.03 46.09 196.98 39.25 203.25 C 32.41 209.52 25.49 216.35 19.00 223.00 Z"/>
</g>
<g fill="#2F2F2F" fill-opacity="0.22" stroke="None">
<path d="
M 100.00 145.00 
C 106.33 145.00 112.67 145.00 119.00 145.00
C 119.34 148.11 114.62 148.88 115.00 152.00
C 117.65 150.46 119.86 147.82 121.00 145.00
C 114.59 143.67 106.82 143.38 100.00 144.00
C 100.00 144.00 100.25 144.75 100.00 145.00 Z"/>
</g>
<g fill="#676767" fill-opacity="0.11" stroke="None">
<path d="
M 137.00 157.00 
C 140.80 154.52 143.93 147.96 141.00 144.00
C 141.52 149.55 139.73 152.62 137.00 157.00 Z"/>
</g>
<g fill="#141414" fill-opacity="0.42" stroke="None">
<path d="
M 55.00 189.00 
C 69.06 174.94 87.61 161.29 99.00 145.00
C 90.18 149.31 84.57 160.62 76.75 166.75 C 68.93 172.88 62.01 181.99 55.00 189.00 Z"/>
</g>
<g fill="#000000" fill-opacity="0.98" stroke="None">
<path d="
M 55.00 189.00 
C 42.52 201.48 26.07 214.60 16.00 229.00
C 26.33 229.00 36.67 228.97 47.00 229.00 C 57.33 229.03 67.67 228.93 78.00 229.00 C 88.33 229.07 98.68 228.84 109.00 229.00 C 119.32 229.16 130.80 228.65 141.00 229.00 C 151.20 229.35 162.15 228.21 172.00 229.00 C 181.85 229.79 193.81 227.24 203.00 229.00 C 212.19 230.76 226.93 224.77 234.00 230.00
C 234.50 230.00 235.00 230.00 235.00 230.00
C 237.58 230.69 241.87 231.45 243.00 228.00
C 243.15 227.55 243.00 226.50 243.00 226.00
C 240.42 219.92 244.12 211.14 241.00 205.00
C 225.00 205.00 209.00 205.00 193.00 205.00
C 190.33 205.00 187.67 205.00 185.00 205.00
C 173.39 205.00 162.06 205.00 150.00 205.00
C 148.00 205.00 146.00 205.00 144.00 205.00
C 138.33 205.00 132.67 205.00 127.00 205.00
C 119.33 205.00 111.67 205.00 104.00 205.00
C 102.00 205.00 100.00 205.00 98.00 205.00
C 93.61 205.43 88.09 206.14 83.00 206.00
C 81.06 205.95 78.15 206.74 77.00 205.00
C 79.95 196.52 88.62 187.05 94.00 181.00
C 94.56 179.98 94.54 178.96 95.00 178.00
C 95.85 176.21 98.20 173.75 100.00 173.00
C 102.21 169.86 103.69 167.72 106.00 164.00
C 107.29 161.92 108.48 160.74 110.00 159.00
C 110.57 158.20 111.32 156.58 112.00 156.00
C 112.61 154.93 112.05 153.75 115.00 153.00
C 115.00 153.00 114.91 152.48 115.00 152.00
C 114.62 148.88 119.34 148.11 119.00 145.00
C 112.67 145.00 106.33 145.00 100.00 145.00
C 100.00 145.00 99.40 144.80 99.00 145.00
C 87.61 161.29 69.06 174.94 55.00 189.00 Z"/>
</g>
<g fill="#101010" fill-opacity="0.42" stroke="None">
<path d="
M 143.00 177.00 
C 152.36 168.43 160.50 158.50 169.00 150.00
C 164.78 152.47 159.20 159.09 154.25 163.25 C 149.29 167.40 144.05 175.02 143.00 177.00 Z"/>
</g>
<g fill="#101010" fill-opacity="0.45" stroke="None">
<path d="
M 112.00 156.00 
C 112.48 155.59 113.62 155.38 114.00 155.00
C 114.21 154.70 114.93 153.39 115.00 153.00
C 112.05 153.75 112.61 154.93 112.00 156.00 Z"/>
</g>
<g fill="#494949" fill-opacity="0.05" stroke="None">
<path d="
M 112.00 156.00 
C 111.32 156.58 110.57 158.20 110.00 159.00
C 109.30 159.98 108.64 161.03 108.00 162.00
C 109.95 159.69 112.18 157.65 114.00 155.00
C 113.62 155.38 112.48 155.59 112.00 156.00 Z"/>
</g>
<g fill="#838383" fill-opacity="0.08" stroke="None">
<path d="
M 132.00 164.00 
C 134.19 162.47 136.47 160.71 137.00 158.00
C 135.14 159.78 133.66 161.82 132.00 164.00 Z"/>
</g>
<g fill="#171717" fill-opacity="0.33" stroke="None">
<path d="
M 106.00 164.00 
C 107.27 162.85 107.01 163.51 108.00 162.00
C 108.64 161.03 109.30 159.98 110.00 159.00
C 108.48 160.74 107.29 161.92 106.00 164.00 Z"/>
</g>
<g fill="#7F7F7F" fill-opacity="0.08" stroke="None">
<path d="
M 124.00 175.00 
C 125.13 174.03 127.08 173.06 128.00 172.00
C 129.20 170.02 131.16 167.33 132.00 165.00
C 128.33 167.56 126.68 171.49 124.00 175.00 Z"/>
</g>
<g fill="#1A1A1A" fill-opacity="0.52" stroke="None">
<path d="
M 124.00 175.00 
C 124.00 175.00 124.16 175.56 124.00 176.00
C 123.42 177.60 122.19 179.81 121.00 181.00
C 123.39 178.06 125.93 175.42 128.00 172.00
C 127.08 173.06 125.13 174.03 124.00 175.00 Z"/>
</g>
<g fill="#121212" fill-opacity="0.42" stroke="None">
<path d="
M 95.00 178.00 
C 95.85 176.66 98.71 174.90 100.00 174.00
C 100.00 174.00 99.76 173.33 100.00 173.00
C 98.20 173.75 95.85 176.21 95.00 178.00 Z"/>
</g>
<g fill="#373737" fill-opacity="0.07" stroke="None">
<path d="
M 95.00 178.00 
C 94.54 178.96 94.56 179.98 94.00 181.00
C 95.79 178.98 98.70 176.66 100.00 174.00
C 98.71 174.90 95.85 176.66 95.00 178.00 Z"/>
</g>
<g fill="#A2A2A2" fill-opacity="0.06" stroke="None">
<path d="
M 118.00 183.00 
C 118.73 182.20 120.28 181.72 121.00 181.00
C 122.19 179.81 123.42 177.60 124.00 176.00
C 122.12 177.80 119.25 180.45 118.00 183.00 Z"/>
</g>
<g fill="#313131" fill-opacity="0.27" stroke="None">
<path d="
M 118.00 183.00 
C 118.00 183.00 118.22 183.64 118.00 184.00
C 117.30 185.14 116.47 186.22 118.00 187.00
C 118.21 184.73 119.58 182.75 121.00 181.00
C 120.28 181.72 118.73 182.20 118.00 183.00 Z"/>
</g>
<g fill="#9E9E9E" fill-opacity="0.02" stroke="None">
<path d="
M 131.00 187.00 
C 128.58 187.51 125.48 187.00 123.00 187.00
C 121.81 187.00 119.04 187.53 118.00 187.00
C 116.47 186.22 117.30 185.14 118.00 184.00
C 111.25 187.82 128.20 188.55 131.00 187.00 Z"/>
</g>
<g fill="#0C0C0C" fill-opacity="0.42" stroke="None">
<path d="
M 123.00 187.00 
C 125.48 187.00 128.58 187.51 131.00 187.00
C 131.63 186.65 132.33 186.35 133.00 186.00
C 133.36 185.20 123.66 186.93 123.00 187.00 Z"/>
</g>
<g fill="#181818" fill-opacity="0.63" stroke="None">
<path d="
M 20.00 223.00 
C 18.28 224.72 17.01 226.59 15.00 228.00
C 14.91 228.48 15.00 229.00 15.00 229.00
C 15.25 229.25 16.00 229.00 16.00 229.00
C 26.07 214.60 42.52 201.48 55.00 189.00
C 49.56 194.44 43.05 201.15 37.25 206.25 C 31.44 211.34 26.85 219.65 20.00 223.00 Z"/>
</g>
<g fill="#474747" fill-opacity="0.04" stroke="None">
<path d="
M 78.00 205.00 
C 79.67 205.00 81.33 205.00 83.00 205.00
C 85.00 205.00 87.00 205.00 89.00 205.00
C 89.10 204.98 89.00 204.00 89.00 204.00
C 85.65 204.00 80.55 203.12 78.00 205.00 Z"/>
</g>
<g fill="#979797" fill-opacity="0.02" stroke="None">
<path d="
M 89.00 205.00 
C 92.00 205.00 95.00 205.00 98.00 205.00
C 100.00 205.00 102.00 205.00 104.00 205.00
C 99.68 204.58 94.06 204.00 89.00 204.00
C 89.00 204.00 89.10 204.98 89.00 205.00 Z"/>
</g>
<g fill="#A4A4A4" fill-opacity="0.01" stroke="None">
<path d="
M 127.00 205.00 
C 132.67 205.00 138.33 205.00 144.00 205.00
C 143.90 204.98 144.00 204.00 144.00 204.00
C 138.26 203.84 132.04 204.51 127.00 205.00 Z"/>
</g>
<g fill="#FFFFFF" fill-opacity="0.00" stroke="None">
<path d="
M 144.00 205.00 
C 146.00 205.00 148.00 205.00 150.00 205.00
C 148.57 204.84 146.12 204.06 144.00 204.00
C 144.00 204.00 143.90 204.98 144.00 205.00 Z"/>
</g>
<g fill="#DDDDDD" fill-opacity="0.00" stroke="None">
<path d="
M 185.00 205.00 
C 187.67 205.00 190.33 205.00 193.00 205.00
C 192.96 205.00 193.00 204.00 193.00 204.00
C 190.23 204.00 187.10 204.80 185.00 205.00 Z"/>
</g>
<g fill="#A0A0A0" fill-opacity="0.03" stroke="None">
<path d="
M 193.00 205.00 
C 209.00 205.00 225.00 205.00 241.00 205.00
C 241.50 205.00 242.00 205.00 242.00 205.00
C 236.56 200.99 225.17 204.95 218.00 204.00 C 210.83 203.05 200.46 204.00 193.00 204.00
C 193.00 204.00 192.96 205.00 193.00 205.00 Z"/>
</g>
<g fill="#040404" fill-opacity="0.68" stroke="None">
<path d="
M 83.00 206.00 
C 82.96 206.00 83.00 205.00 83.00 205.00
C 81.33 205.00 79.67 205.00 78.00 205.00
C 78.00 205.00 77.15 205.23 77.00 205.00
C 78.15 206.74 81.06 205.95 83.00 206.00 Z"/>
</g>
<g fill="#0D0D0D" fill-opacity="0.49" stroke="None">
<path d="
M 83.00 206.00 
C 88.09 206.14 93.61 205.43 98.00 205.00
C 95.00 205.00 92.00 205.00 89.00 205.00
C 87.00 205.00 85.00 205.00 83.00 205.00
C 83.00 205.00 82.96 206.00 83.00 206.00 Z"/>
</g>
<g fill="#121212" fill-opacity="0.48" stroke="None">
<path d="
M 243.00 226.00 
C 243.00 222.67 243.00 219.33 243.00 216.00
C 243.00 212.78 243.46 209.18 243.00 206.00
C 242.78 205.70 242.35 205.03 242.00 205.00
C 242.00 205.00 241.50 205.00 241.00 205.00
C 244.12 211.14 240.42 219.92 243.00 226.00 Z"/>
</g>
<g fill="#A5A5A5" fill-opacity="0.02" stroke="None">
<path d="
M 243.00 216.00 
C 243.00 215.96 244.00 216.00 244.00 216.00
C 244.00 212.85 244.76 208.39 243.00 206.00
C 243.46 209.18 243.00 212.78 243.00 216.00 Z"/>
</g>
<g fill="#5D5D5D" fill-opacity="0.03" stroke="None">
<path d="
M 243.00 226.00 
C 243.00 226.50 243.15 227.55 243.00 228.00
C 245.12 227.38 244.00 218.04 244.00 216.00
C 244.00 216.00 243.00 215.96 243.00 216.00
C 243.00 219.33 243.00 222.67 243.00 226.00 Z"/>
</g>
<g fill="#494949" fill-opacity="0.18" stroke="None">
<path d="
M 16.00 226.00 
C 15.59 226.56 15.13 227.31 15.00 228.00
C 17.01 226.59 18.28 224.72 20.00 223.00
C 20.00 223.00 19.35 222.77 19.00 223.00
C 17.99 224.03 16.84 224.85 16.00 226.00 Z"/>
</g>
<g fill="#A8A8A8" fill-opacity="0.04" stroke="None">
<path d="
M 23.00 231.00 
C 22.96 231.00 23.00 230.00 23.00 230.00
C 20.47 230.00 16.71 230.77 15.00 229.00
C 15.00 229.00 14.91 228.48 15.00 228.00
C 15.13 227.31 15.59 226.56 16.00 226.00
C 14.05 226.43 13.99 228.67 13.00 230.00
C 15.93 231.61 19.66 231.00 23.00 231.00 Z"/>
</g>
<g fill="#040404" fill-opacity="0.49" stroke="None">
<path d="
M 23.00 230.00 
C 26.67 230.00 30.33 230.00 34.00 230.00
C 37.67 230.00 41.33 230.00 45.00 230.00
C 47.33 230.00 49.67 230.00 52.00 230.00
C 53.00 230.00 54.00 230.00 55.00 230.00
C 61.67 230.00 68.33 230.00 75.00 230.00
C 99.67 230.00 124.33 230.00 149.00 230.00
C 163.00 230.00 177.00 230.00 191.00 230.00
C 205.33 230.00 219.67 230.00 234.00 230.00
C 226.93 224.77 212.19 230.76 203.00 229.00 C 193.81 227.24 181.85 229.79 172.00 229.00 C 162.15 228.21 151.20 229.35 141.00 229.00 C 130.80 228.65 119.32 229.16 109.00 229.00 C 98.68 228.84 88.33 229.07 78.00 229.00 C 67.67 228.93 57.33 229.03 47.00 229.00 C 36.67 228.97 26.33 229.00 16.00 229.00
C 16.00 229.00 15.25 229.25 15.00 229.00
C 16.71 230.77 20.47 230.00 23.00 230.00 Z"/>
</g>
<g fill="#7B7B7B" fill-opacity="0.01" stroke="None">
<path d="
M 23.00 231.00 
C 26.67 231.00 30.33 231.00 34.00 231.00
C 33.96 231.00 34.00 230.00 34.00 230.00
C 30.33 230.00 26.67 230.00 23.00 230.00
C 23.00 230.00 22.96 231.00 23.00 231.00 Z"/>
</g>
<g fill="#535353" fill-opacity="0.01" stroke="None">
<path d="
M 34.00 231.00 
C 37.66 231.00 41.34 231.07 45.00 231.00
C 45.04 231.00 45.00 230.00 45.00 230.00
C 41.33 230.00 37.67 230.00 34.00 230.00
C 34.00 230.00 33.96 231.00 34.00 231.00 Z"/>
</g>
<g fill="#808080" fill-opacity="0.01" stroke="None">
<path d="
M 45.00 231.00 
C 47.63 230.95 49.97 230.45 52.00 230.00
C 49.67 230.00 47.33 230.00 45.00 230.00
C 45.00 230.00 45.04 231.00 45.00 231.00 Z"/>
</g>
<g fill="#808080" fill-opacity="0.01" stroke="None">
<path d="
M 75.00 231.00 
C 74.96 231.00 75.00 230.00 75.00 230.00
C 68.33 230.00 61.67 230.00 55.00 230.00
C 60.94 231.30 68.30 231.00 75.00 231.00 Z"/>
</g>
<g fill="#4B4B4B" fill-opacity="0.02" stroke="None">
<path d="
M 75.00 231.00 
C 99.67 231.00 124.33 231.00 149.00 231.00
C 148.96 231.00 149.00 230.00 149.00 230.00
C 124.33 230.00 99.67 230.00 75.00 230.00
C 75.00 230.00 74.96 231.00 75.00 231.00 Z"/>
</g>
<g fill="#797979" fill-opacity="0.01" stroke="None">
<path d="
M 149.00 231.00 
C 163.00 231.00 177.00 231.00 191.00 231.00
C 190.96 231.00 191.00 230.00 191.00 230.00
C 177.00 230.00 163.00 230.00 149.00 230.00
C 149.00 230.00 148.96 231.00 149.00 231.00 Z"/>
</g>
<g fill="#525252" fill-opacity="0.01" stroke="None">
<path d="
M 191.00 231.00 
C 197.43 231.00 207.98 231.89 214.00 231.00 C 220.02 230.11 231.13 234.02 235.00 230.00
C 235.00 230.00 234.50 230.00 234.00 230.00
C 219.67 230.00 205.33 230.00 191.00 230.00
C 191.00 230.00 190.96 231.00 191.00 231.00 Z"/>
</g>
</svg>