<svg width="65" height="65" viewBox="0 0 65 65" fill="none" xmlns="http://www.w3.org/2000/svg">
<rect width="65" height="65" rx="32.5" fill="#FFD50D"/>
<path fill-rule="evenodd" clip-rule="evenodd" d="M19.7306 19.5C19.6287 19.5005 19.5279 19.5244 19.4339 19.5703C19.3399 19.6163 19.2546 19.6835 19.1828 19.7679C19.1111 19.8524 19.0542 19.9526 19.0156 20.0627C18.977 20.1729 18.9573 20.2908 18.9577 20.4098C18.9585 20.6489 19.0402 20.878 19.185 21.0471C19.3297 21.2162 19.5259 21.3116 19.7306 21.3125H41.2437L40.4784 25.7855L40.4768 25.7893L37.7081 41.9517H28.0291C27.6614 39.5575 25.8737 37.7177 23.7343 37.7177C21.5949 37.7177 19.8123 39.5575 19.4457 41.9517H15.8935C15.7911 41.9512 15.6896 41.9744 15.5949 42.02C15.5002 42.0656 15.4142 42.1326 15.3418 42.2171C15.2694 42.3017 15.212 42.4022 15.173 42.5128C15.134 42.6234 15.1142 42.7419 15.1146 42.8615C15.1149 42.9805 15.1354 43.0983 15.1748 43.2081C15.2141 43.3178 15.2716 43.4175 15.3439 43.5013C15.4163 43.5851 15.502 43.6515 15.5963 43.6966C15.6906 43.7417 15.7916 43.7647 15.8935 43.7642H19.4441C19.8078 46.1616 21.5923 48 23.7343 48C25.8764 48 27.666 46.1616 28.0306 43.7642H38.3461H41.4437C41.8083 46.1616 43.5979 48 45.7399 48C47.8575 48 49.4807 46.1285 49.8588 43.7642H52.6533C52.832 43.7629 53.0048 43.6897 53.1425 43.5568C53.2803 43.424 53.3746 43.2396 53.4095 43.035L54.984 33.843C55.0135 33.6757 55.002 33.5021 54.9507 33.3421L52.4184 25.6423C52.3621 25.4705 52.2623 25.3228 52.1324 25.2187C52.0025 25.1147 51.8485 25.0593 51.691 25.06H42.1801L42.9454 20.5835C42.9677 20.4525 42.965 20.3174 42.9374 20.1878C42.9098 20.0582 42.858 19.9373 42.7858 19.8338C42.7135 19.7303 42.6226 19.6467 42.5195 19.5891C42.4163 19.5314 42.3036 19.5011 42.1892 19.5002L19.7306 19.5ZM15.3434 26.1643C15.1387 26.1652 14.9426 26.2606 14.7978 26.4297C14.653 26.5988 14.5713 26.8279 14.5705 27.067C14.5701 27.186 14.5898 27.304 14.6284 27.4141C14.6671 27.5242 14.7239 27.6244 14.7957 27.7089C14.8674 27.7934 14.9527 27.8605 15.0467 27.9065C15.1407 27.9525 15.2415 27.9764 15.3434 27.9768H21.4552C21.557 27.9764 21.6579 27.9525 21.7518 27.9065C21.8458 27.8605 21.9311 27.7934 22.0029 27.7089C22.0747 27.6244 22.1315 27.5242 22.1701 27.4141C22.2087 27.304 22.2284 27.186 22.228 27.067C22.2272 26.8279 22.1455 26.5988 22.0008 26.4297C21.856 26.2606 21.6599 26.1652 21.4552 26.1643H15.3434ZM41.8741 26.8723H51.1591L53.4217 33.7437L52.0184 41.9515H50.0301C49.6635 39.5573 47.8793 37.7175 45.7399 37.7175C43.6006 37.7175 41.8129 39.5573 41.4452 41.9515H39.2933L40.1722 36.8059L41.8741 26.8723ZM10.7729 32.8197C10.5681 32.8207 10.372 32.9161 10.2273 33.0852C10.0825 33.2542 10.0008 33.4833 10 33.7225C9.99961 33.8415 10.0193 33.9594 10.0579 34.0695C10.0965 34.1797 10.1534 34.2798 10.2251 34.3643C10.2969 34.4488 10.3822 34.5159 10.4762 34.5619C10.5702 34.6079 10.671 34.6318 10.7729 34.6323H21.4552C21.557 34.6318 21.6579 34.6079 21.7518 34.5619C21.8458 34.5159 21.9311 34.4488 22.0029 34.3643C22.0747 34.2798 22.1315 34.1797 22.1701 34.0695C22.2087 33.9594 22.2284 33.8415 22.228 33.7225C22.2272 33.4833 22.1455 33.2543 22.0008 33.0852C21.856 32.9161 21.6599 32.8207 21.4552 32.8197H10.7729ZM23.7344 39.53C25.2772 39.53 26.5241 40.9826 26.5455 42.8135C26.5436 42.8294 26.542 42.8453 26.5408 42.8612C26.542 42.8766 26.5436 42.892 26.5455 42.9073C26.525 44.7388 25.2777 46.1872 23.7344 46.1872C22.1781 46.1872 20.9278 44.7145 20.9278 42.8613C20.9278 41.008 22.1781 39.53 23.7344 39.53ZM45.7399 39.53C47.2962 39.53 48.5465 41.008 48.5465 42.8613C48.5465 44.7146 47.2962 46.1872 45.7399 46.1872C44.1837 46.1872 42.9288 44.7146 42.9288 42.8613C42.9288 41.008 44.1837 39.53 45.7399 39.53Z" fill="black"/>
</svg>
