<svg width="65" height="65" viewBox="0 0 65 65" fill="none" xmlns="http://www.w3.org/2000/svg">
<rect width="65" height="65" rx="32.5" fill="#FFD50D"/>
<path fill-rule="evenodd" clip-rule="evenodd" d="M23.7215 41.261C23.7216 41.3495 23.7042 41.4372 23.6705 41.519C23.6368 41.6008 23.5873 41.6751 23.5249 41.7377C23.4626 41.8003 23.3885 41.85 23.307 41.8839C23.2254 41.9177 23.138 41.9352 23.0498 41.9352H17.2108C17.0357 41.9305 16.8693 41.8574 16.7471 41.7316C16.6249 41.6057 16.5565 41.4369 16.5565 41.2612C16.5565 41.0856 16.6249 40.9168 16.7471 40.7909C16.8693 40.6651 17.0357 40.592 17.2108 40.5873H23.0498C23.2279 40.5873 23.3988 40.6583 23.5248 40.7846C23.6507 40.911 23.7215 41.0823 23.7215 41.261ZM42.7176 46.5226L48.204 41.0205C48.2663 40.9579 48.3403 40.9082 48.4218 40.8743C48.5033 40.8403 48.5906 40.8228 48.6789 40.8228C48.7671 40.8227 48.8544 40.8401 48.936 40.8739C49.0175 40.9077 49.0916 40.9572 49.154 41.0198C49.2164 41.0823 49.266 41.1565 49.2998 41.2382C49.3336 41.3199 49.351 41.4075 49.3511 41.496C49.3512 41.5845 49.3339 41.6721 49.3002 41.7539C49.2665 41.8356 49.217 41.9099 49.1547 41.9726L43.192 47.9524C43.1298 48.0153 43.0558 48.0652 42.9743 48.0992C42.8928 48.1333 42.8054 48.1508 42.7171 48.1508C42.6288 48.1508 42.5414 48.1333 42.4599 48.0992C42.3784 48.0652 42.3044 48.0153 42.2422 47.9524L38.3639 44.0626C38.242 43.9355 38.1747 43.7655 38.1764 43.5891C38.1782 43.4127 38.2488 43.2441 38.3731 43.1193C38.4975 42.9946 38.6657 42.9238 38.8415 42.922C39.0174 42.9203 39.1869 42.9878 39.3137 43.1101L42.7176 46.5226ZM52.6547 44.3084V37.7148L43.7586 33.4877L34.862 37.7148V44.3084C35.2504 46.7881 36.2746 49.1241 37.8342 51.0872C39.3938 53.0503 41.4353 54.5733 43.7586 55.5067C46.082 54.5733 48.1237 53.0503 49.6837 51.0872C51.2436 49.1241 52.2682 46.7882 52.6571 44.3084H52.6547ZM15.2473 27.1106V43.812H28.81V22.9473L26.6759 26.7661C26.6178 26.8708 26.5327 26.958 26.4296 27.0186C26.3266 27.0792 26.2092 27.111 26.0897 27.1106H15.2473ZM15.4575 21.0402H28.3346L25.6965 25.7633H12.8213L15.4599 21.0402H15.4575ZM43.5011 21.0402L46.1411 25.7633H33.2659L30.6268 21.0402H43.5011ZM43.7113 32.0708V27.1106H32.8727C32.7532 27.111 32.6358 27.0792 32.5327 27.0186C32.4297 26.958 32.3446 26.8708 32.2865 26.7661L30.1534 22.9473V43.812H33.5181V37.2883C33.5181 37.1609 33.5539 37.0361 33.6215 36.9283C33.6892 36.8204 33.7858 36.734 33.9003 36.6789L43.47 32.1331C43.5452 32.098 43.6262 32.0769 43.7089 32.0708H43.7113ZM53.6178 36.6789L45.0561 32.6128V27.1106H47.2877C47.4052 27.1114 47.5208 27.0812 47.6229 27.023C47.725 26.9647 47.81 26.8806 47.8694 26.7789C47.9288 26.6772 47.9604 26.5617 47.9611 26.4439C47.9618 26.3261 47.9316 26.2101 47.8734 26.1078L44.4814 20.0369C44.4233 19.9322 44.3383 19.845 44.2352 19.7844C44.1321 19.7238 44.0147 19.6921 43.8952 19.6924H15.0638C14.9444 19.6924 14.8272 19.7243 14.7241 19.7849C14.6211 19.8454 14.536 19.9324 14.4776 20.0369L11.0856 26.1078C11.0284 26.2103 10.9989 26.3261 11 26.4436C11.0012 26.5611 11.033 26.6763 11.0922 26.7777C11.1515 26.879 11.2362 26.9631 11.3378 27.0215C11.4395 27.0799 11.5547 27.1107 11.6718 27.1106H13.9029V43.8595C13.9035 44.2043 14.0405 44.5349 14.2837 44.7786C14.5269 45.0224 14.8566 45.1595 15.2005 45.1599H33.6505C34.174 47.7886 35.3543 50.241 37.0808 52.2874C38.8073 54.3337 41.0234 55.907 43.5216 56.8599C43.6755 56.9186 43.8455 56.9186 43.9994 56.8599C46.6095 55.8644 48.9097 54.1923 50.6652 52.0143C52.4208 49.8362 53.5689 47.2301 53.9924 44.4618C53.9968 44.4279 53.9994 44.3938 54 44.3597V37.2883C54.0001 37.1609 53.9642 37.0361 53.8966 36.9283C53.829 36.8204 53.7323 36.734 53.6178 36.6789Z" fill="black"/>
</svg>
