<svg width="65" height="65" viewBox="0 0 65 65" fill="none" xmlns="http://www.w3.org/2000/svg">
<rect width="65" height="65" rx="32.5" fill="#FFD50D"/>
<path d="M31.9362 47.1284C31.9554 47.1394 31.9783 47.1358 31.9984 47.1449C32.0112 47.1504 32.0259 47.1513 32.0396 47.1559C32.1174 47.1861 32.1951 47.2208 32.2775 47.2208C32.39 47.2208 32.5025 47.1925 32.605 47.1348L44.7314 40.3128C44.9409 40.1957 45.0699 39.9752 45.0717 39.7355L45.2263 25.837C45.2263 25.8077 45.2144 25.7821 45.2108 25.7538C45.2053 25.708 45.1998 25.6641 45.1851 25.6202C45.1714 25.5799 45.1522 25.5443 45.1321 25.5077C45.111 25.4692 45.09 25.4336 45.0616 25.3997C45.0324 25.3659 44.9985 25.3384 44.9628 25.311C44.94 25.2927 44.9244 25.268 44.8988 25.2533L32.9243 18.1733C32.9014 18.1595 32.8749 18.1586 32.8501 18.1477C32.8053 18.1275 32.7623 18.1101 32.7138 18.1001C32.6846 18.0946 32.6562 18.0909 32.626 18.0891C32.6041 18.0873 32.5839 18.0864 32.562 18.0873C32.5281 18.0882 32.4952 18.0918 32.4613 18.0992C32.4202 18.1074 32.3836 18.122 32.3442 18.1376C32.315 18.1486 32.2848 18.1504 32.2573 18.166L20.2288 24.9405C20.2251 24.9423 20.2215 24.945 20.2178 24.9469L20.1437 24.988C20.13 24.9963 20.1218 25.01 20.109 25.0182C20.0605 25.0521 20.0166 25.0859 19.9781 25.1317C19.9525 25.1609 19.9324 25.192 19.9114 25.225C19.9086 25.2295 19.904 25.2314 19.9022 25.235C19.9004 25.2387 19.9004 25.2424 19.8985 25.246C19.8812 25.278 19.8656 25.3082 19.8528 25.3421C19.8382 25.3814 19.8299 25.4208 19.8235 25.4628C19.8208 25.4775 19.818 25.4912 19.8171 25.5058C19.8153 25.525 19.8052 25.5415 19.8052 25.5616L19.6497 39.4647C19.647 39.7035 19.7714 39.9249 19.9772 40.0475L31.9362 47.1284ZM32.486 31.8888L21.8051 25.5845L26.5194 22.9296L37.1683 29.2439L32.486 31.8888ZM38.5067 28.4873L27.8605 22.1748L32.5775 19.5181L43.2301 25.8187L38.5067 28.4873ZM21.1263 26.7336L31.756 33.0067L31.616 45.3875L20.9891 39.096L21.1263 26.7336ZM32.9499 45.4094L33.0889 33.0818L43.8769 26.987L43.7378 39.3412L32.9499 45.4094Z" fill="black"/>
<path d="M49.7201 25.9685C47.9324 21.1975 44.3938 17.4072 39.7555 15.2958C35.1172 13.1843 29.9345 13.0077 25.1617 14.7944C25.1498 14.799 25.1416 14.8091 25.1297 14.8145L26.0583 12.9665C26.2238 12.6372 26.0912 12.2365 25.7618 12.0709C25.4307 11.9062 25.0318 12.038 24.8662 12.3673L23.2432 15.5977C23.0777 15.927 23.2103 16.3277 23.5397 16.4933L26.77 18.1163C26.8661 18.1647 26.9685 18.1876 27.0692 18.1876C27.3134 18.1876 27.5486 18.0531 27.6657 17.8198C27.8312 17.4905 27.6986 17.0898 27.3692 16.9242L25.621 16.0459C25.6237 16.045 25.6264 16.0459 25.6292 16.0441C30.0681 14.3818 34.8875 14.5474 39.202 16.5098C43.5164 18.4731 46.8072 21.9989 48.4695 26.4369C50.1318 30.8748 49.9662 35.6961 48.0029 40.0087C46.0396 44.3232 42.5147 47.6139 38.0758 49.2771C33.6369 50.9385 28.8165 50.7748 24.503 48.8106C20.1885 46.8482 16.8978 43.3214 15.2355 38.8835C15.1065 38.5395 14.7205 38.3593 14.3765 38.4937C14.0316 38.6227 13.8568 39.007 13.9858 39.3528C15.7735 44.1247 19.3121 47.914 23.9504 50.0255C26.4718 51.1718 29.1532 51.75 31.8429 51.75C34.1017 51.7491 36.365 51.3438 38.5433 50.5259C43.3152 48.7392 47.1063 45.2015 49.2169 40.5631C51.3284 35.9248 51.5068 30.7422 49.7201 25.9685ZM24.7354 15.6004L24.7564 15.5592C24.7601 15.5784 24.7601 15.5967 24.7656 15.616L24.7354 15.6004Z" fill="black"/>
</svg>
