<svg width="65" height="65" viewBox="0 0 65 65" fill="none" xmlns="http://www.w3.org/2000/svg">
<rect width="65" height="65" rx="32.5" fill="#FFD50D"/>
<path d="M31.9999 16.3335C22.8087 16.3335 15.3333 23.809 15.3333 33.0002C15.3333 42.1913 22.8087 49.6668 31.9999 49.6668C41.1911 49.6668 48.6666 42.1913 48.6666 33.0002C48.6666 23.809 41.1911 16.3335 31.9999 16.3335ZM31.9999 47.706C23.8926 47.706 17.294 41.1075 17.294 33.0002C17.294 24.8928 23.8926 18.2943 31.9999 18.2943C40.1073 18.2943 46.7058 24.8928 46.7058 33.0002C46.7058 41.1075 40.1073 47.706 31.9999 47.706Z" fill="black"/>
<path d="M31.0195 32.0197H24.1567V33.9804H32.9803V21.2354H31.0195V32.0197Z" fill="black"/>
</svg>
